<svg width="43" height="43" viewBox="0 0 43 43" fill="none" xmlns="http://www.w3.org/2000/svg">
<path d="M21.5024 0C24.8006 0.000954356 28.0544 0.760437 31.0121 2.2197C33.9698 3.67897 36.5521 5.79891 38.5593 8.41555C40.5665 11.0322 41.9448 14.0754 42.5876 17.3098C43.2304 20.5442 43.1205 23.883 42.2663 27.0681C41.4121 30.2532 39.8366 33.1992 37.6616 35.6782C35.4866 38.1572 32.7704 40.1027 29.7231 41.3643C26.6758 42.6259 23.3791 43.1698 20.088 42.9538C16.7969 42.7379 13.5995 41.768 10.7433 40.119L2.35675 42.9068C2.0413 43.0115 1.70297 43.0263 1.37956 42.9497C1.05615 42.8732 0.760408 42.7082 0.525397 42.4732C0.290386 42.2382 0.125362 41.9425 0.0487695 41.6192C-0.0278228 41.2958 -0.0129655 40.9576 0.091681 40.6422L2.88718 32.2607C0.997474 28.9926 0.00170331 25.2846 2.18326e-06 21.5097C-0.00169895 17.7347 0.99073 14.0259 2.87749 10.756C4.76425 7.4862 7.47884 4.77069 10.7483 2.88257C14.0177 0.994444 17.7267 0.000263749 21.5024 0ZM14.0907 10.7607C13.8173 10.7702 13.5493 10.8392 13.3054 10.963C13.0615 11.0868 12.8476 11.2623 12.6786 11.4774C12.1948 12.0436 10.8293 13.4232 10.8293 16.2253C10.8293 19.0311 12.7252 21.7437 12.9904 22.1235C13.252 22.4962 16.7213 28.251 22.0292 30.7235C23.0148 31.1822 24.0183 31.5835 25.0397 31.9239C26.3085 32.3539 27.4661 32.2966 28.38 32.1532C29.3979 31.992 31.5088 30.7772 31.9497 29.4407C32.3869 28.1148 32.3869 26.9717 32.2543 26.7352C32.1253 26.4952 31.7705 26.3518 31.2364 26.0616C30.0472 25.4164 28.8426 24.7999 27.6238 24.2126C27.14 24.0191 26.7851 23.9259 26.4339 24.4992C26.0791 25.069 25.072 26.3554 24.7602 26.7352C24.4556 27.1043 24.1438 27.1581 23.6133 26.875C23.0829 26.5919 21.3805 25.9863 19.3591 24.0442C18.1927 22.8777 17.2027 21.5475 16.4203 20.0953C16.1049 19.522 16.3844 19.2174 16.6461 18.9307C16.8862 18.6799 17.1765 18.2678 17.4417 17.931C17.7033 17.6085 17.7965 17.3684 17.9721 16.985C18.1478 16.6052 18.0582 16.2683 17.9256 15.9888C17.7929 15.7022 16.7357 12.8928 16.2913 11.7497C15.8612 10.6389 15.4275 10.7966 15.1014 10.7751C14.7967 10.7607 14.4455 10.7607 14.0907 10.7607Z" fill="#25D366"/>
</svg>
