<svg width="40" height="40" viewBox="0 0 40 40" fill="none" xmlns="http://www.w3.org/2000/svg">
<path d="M25.2137 21.64C25.2137 21.3552 25.1006 21.0821 24.8993 20.8808C24.6979 20.6794 24.4248 20.5663 24.14 20.5663H15.5503C15.2655 20.5663 14.9924 20.6794 14.791 20.8808C14.5897 21.0821 14.4766 21.3552 14.4766 21.64C14.4766 21.9248 14.5897 22.1979 14.791 22.3992C14.9924 22.6006 15.2655 22.7137 15.5503 22.7137H24.14C24.4248 22.7137 24.6979 22.6006 24.8993 22.3992C25.1006 22.1979 25.2137 21.9248 25.2137 21.64ZM25.2137 27.3665C25.2137 27.0817 25.1006 26.8086 24.8993 26.6073C24.6979 26.4059 24.4248 26.2928 24.14 26.2928H15.5503C15.2655 26.2928 14.9924 26.4059 14.791 26.6073C14.5897 26.8086 14.4766 27.0817 14.4766 27.3665C14.4766 27.6513 14.5897 27.9244 14.791 28.1257C14.9924 28.3271 15.2655 28.4402 15.5503 28.4402H24.14C24.4248 28.4402 24.6979 28.3271 24.8993 28.1257C25.1006 27.9244 25.2137 27.6513 25.2137 27.3665Z" fill="white"/>
<path fill-rule="evenodd" clip-rule="evenodd" d="M12.687 6.25C11.6428 6.25 10.6414 6.66479 9.90311 7.40311C9.16479 8.14144 8.75 9.14282 8.75 10.187V30.2297C8.75 31.2739 9.16479 32.2752 9.90311 33.0136C10.6414 33.7519 11.6428 34.1667 12.687 34.1667H27.0032C28.0474 34.1667 29.0487 33.7519 29.7871 33.0136C30.5254 32.2752 30.9402 31.2739 30.9402 30.2297V14.436C30.9402 13.8906 30.7626 13.3609 30.4334 12.9257L26.1414 7.24498C25.9078 6.93591 25.6058 6.68521 25.259 6.51257C24.9123 6.33993 24.5302 6.25005 24.1428 6.25H12.687ZM10.8974 10.187C10.8974 9.19915 11.6991 8.39744 12.687 8.39744H23.0662V14.6923C23.0662 15.285 23.5473 15.766 24.14 15.766H28.7927V30.2297C28.7927 31.2175 27.991 32.0192 27.0032 32.0192H12.687C11.6991 32.0192 10.8974 31.2175 10.8974 30.2297V10.187Z" fill="white"/>
</svg>
