<svg width="40" height="40" viewBox="0 0 40 40" fill="none" xmlns="http://www.w3.org/2000/svg">
<path d="M26.6667 22.0833C26.3351 22.0833 26.0172 22.215 25.7828 22.4495C25.5484 22.6839 25.4167 23.0018 25.4167 23.3333C25.4167 23.6649 25.5484 23.9828 25.7828 24.2172C26.0172 24.4516 26.3351 24.5833 26.6667 24.5833H30.8333C31.1649 24.5833 31.4828 24.4516 31.7172 24.2172C31.9516 23.9828 32.0833 23.6649 32.0833 23.3333C32.0833 23.0018 31.9516 22.6839 31.7172 22.4495C31.4828 22.215 31.1649 22.0833 30.8333 22.0833H26.6667ZM3.75 11.6667C3.75 10.2301 4.32068 8.85233 5.3365 7.8365C6.35233 6.82068 7.73008 6.25 9.16667 6.25H31.6667C32.378 6.25 33.0824 6.39011 33.7395 6.66232C34.3967 6.93453 34.9938 7.33352 35.4968 7.8365C35.9998 8.33949 36.3988 8.93662 36.671 9.5938C36.9432 10.251 37.0833 10.9553 37.0833 11.6667V24.1667C37.0833 24.878 36.9432 25.5824 36.671 26.2395C36.3988 26.8967 35.9998 27.4938 35.4968 27.9968C34.9938 28.4998 34.3967 28.8988 33.7395 29.171C33.0824 29.4432 32.378 29.5833 31.6667 29.5833H9.16667C7.73008 29.5833 6.35233 29.0127 5.3365 27.9968C4.32068 26.981 3.75 25.6033 3.75 24.1667V11.6667ZM34.5833 13.75V11.6667C34.5833 10.8931 34.276 10.1513 33.7291 9.60427C33.1821 9.05729 32.4402 8.75 31.6667 8.75H9.16667C8.39312 8.75 7.65125 9.05729 7.10427 9.60427C6.55729 10.1513 6.25 10.8931 6.25 11.6667V13.75H34.5833ZM6.25 16.25V24.1667C6.25 25.7767 7.55667 27.0833 9.16667 27.0833H31.6667C32.4402 27.0833 33.1821 26.776 33.7291 26.2291C34.276 25.6821 34.5833 24.9402 34.5833 24.1667V16.25H6.25Z" fill="white"/>
</svg>
