<svg width="43" height="43" viewBox="0 0 43 43" fill="none" xmlns="http://www.w3.org/2000/svg">
<path d="M21.6644 0.00221125C24.5025 0.0244719 27.3082 0.608555 29.9195 1.72076C32.5308 2.83297 34.896 4.45129 36.8787 6.48234C38.8637 8.51412 40.4264 10.9191 41.4766 13.5584C42.5268 16.1977 43.0436 19.019 42.9971 21.8592C41.5395 50.2221 0.955045 49.9813 0.000520391 21.526C-0.0193264 18.6804 0.528703 15.8594 1.61252 13.2283C2.69634 10.5972 4.29415 8.20874 6.31242 6.20284C8.32953 4.19899 10.7266 2.61827 13.3628 1.55349C15.9991 0.488701 18.8215 -0.0387098 21.6644 0.00221125ZM25.5728 18.0107C25.5728 18.0107 25.6072 18.0322 25.3427 18.3676C25.0187 18.7589 24.6674 19.1268 24.2915 19.4684L18.8223 24.7789C17.6528 25.9485 17.6764 26.6666 19.0373 27.647C20.7808 28.8897 22.5479 30.0379 24.3409 31.2591C26.1317 32.4781 28.3288 34.2691 29.2382 31.6396C29.469 30.9373 29.6438 30.2206 29.7628 29.4896C30.1454 27.3826 30.5281 25.2799 30.8613 23.1514C31.3149 20.1629 31.7449 17.1743 32.1276 14.16C32.3189 12.6765 31.5299 12.0079 30.0487 12.3669C29.4378 12.5106 28.839 12.7018 28.2579 12.9388L12.6587 19.5179C11.1796 20.1371 9.6984 20.8079 8.24082 21.526C7.8818 21.7152 7.42818 22.2419 7.45183 22.601C7.47548 22.96 7.97854 23.3664 8.38486 23.5341C9.38668 23.9404 10.4616 24.2264 11.5129 24.5618C12.3123 24.8349 13.167 24.9058 14.0006 24.7681C14.8341 24.6304 15.6206 24.2884 16.2898 23.7727C18.2741 22.358 20.2889 20.9867 22.333 19.6598C23.2896 19.0148 23.9582 18.6557 24.8913 18.0085C25.3685 17.772 25.476 17.6602 25.5728 17.8043V18.0107Z" fill="#0E2AF3"/>
</svg>
