<svg width="40" height="40" viewBox="0 0 40 40" fill="none" xmlns="http://www.w3.org/2000/svg">
<path d="M37.5 31.25L35.7325 29.4825L32.5 32.715V22.5H30V32.715L26.7675 29.4825L25 31.25L31.25 37.5L37.5 31.25Z" fill="#0E2AF3"/>
<path d="M22.5 35.0006H10V5.00057H20V12.5006C20.002 13.163 20.266 13.7977 20.7344 14.2662C21.2028 14.7346 21.8376 14.9986 22.5 15.0006H30V18.7506H32.5V12.5006C32.5044 12.3363 32.4732 12.173 32.4084 12.022C32.3437 11.8709 32.247 11.7357 32.125 11.6256L23.375 2.87557C23.2654 2.75291 23.1303 2.65575 22.9791 2.59096C22.8279 2.52617 22.6644 2.49532 22.5 2.50057H10C9.33757 2.50255 8.70283 2.76658 8.23442 3.23499C7.76601 3.70341 7.50198 4.33814 7.5 5.00057V35.0006C7.50198 35.663 7.76601 36.2977 8.23442 36.7662C8.70283 37.2346 9.33757 37.4986 10 37.5006H22.5V35.0006ZM22.5 5.50058L29.5 12.5006H22.5V5.50058Z" fill="#0E2AF3"/>
</svg>
