<svg width="32" height="32" viewBox="0 0 32 32" fill="none" xmlns="http://www.w3.org/2000/svg">
<path d="M15.9997 32.0007C24.7374 32.0007 32 24.7381 32 16.0003C32 7.2472 24.7213 0 15.9836 0C7.23114 0 0 7.2472 0 16.0003C0 24.7381 7.24653 32.0007 15.9997 32.0007ZM11.9062 19.9064C8.01556 16.0311 5.53714 11.0903 8.47069 8.15678C8.64337 7.9841 8.83144 7.81209 9.00412 7.63941C9.89831 6.79208 10.761 6.8396 11.5294 7.92186L13.5688 10.824C14.2588 11.8279 14.0861 12.3921 13.3492 13.1765L12.706 13.8827C12.4711 14.1022 12.5655 14.4 12.6746 14.5888C12.9731 15.153 13.8197 16.157 14.7293 17.0672C15.671 18.0082 16.6275 18.8081 17.2238 19.1374C17.4434 19.2632 17.7573 19.2946 17.9614 19.1066L18.6354 18.4634C19.3883 17.7258 20.0008 17.5377 20.9733 18.2278C21.9557 18.9264 22.9441 19.6167 23.9383 20.2986C24.9261 21.0201 25.1611 21.9143 24.1571 22.8239C23.9851 22.9965 23.8278 23.1853 23.6551 23.3573C20.7223 26.2755 15.7962 23.7964 11.9062 19.9064Z" fill="white"/>
</svg>
