<svg width="41" height="40" viewBox="0 0 41 40" fill="none" xmlns="http://www.w3.org/2000/svg">
<path fill-rule="evenodd" clip-rule="evenodd" d="M18.1574 3.86517C18.889 3.5154 19.6897 3.33386 20.5007 3.33386C21.3117 3.33386 22.1123 3.5154 22.844 3.86517C23.489 4.1735 24.0774 4.67683 24.8957 5.3735L25.0257 5.4835C25.4224 5.82183 25.5474 5.92517 25.674 6.01017C25.9957 6.22683 26.3574 6.37517 26.7357 6.45017C26.8857 6.48017 27.0474 6.49517 27.5674 6.53517L27.7357 6.5485C28.8057 6.6335 29.579 6.69517 30.2524 6.93183C31.0172 7.20287 31.7119 7.6413 32.2857 8.21511C32.8596 8.78892 33.298 9.48362 33.569 10.2485C33.8057 10.9218 33.8657 11.6952 33.9524 12.7652L33.9657 12.9335C34.0057 13.4535 34.0207 13.6168 34.0507 13.7652C34.1257 14.1452 34.2757 14.5068 34.4907 14.8285C34.5757 14.9535 34.679 15.0785 35.0174 15.4752L35.1274 15.6052C35.8257 16.4218 36.3274 17.0118 36.6357 17.6552C37.344 19.1385 37.344 20.8618 36.6357 22.3435C36.329 22.9885 35.8257 23.5768 35.1274 24.3952L35.0174 24.5252C34.8311 24.7323 34.6553 24.9487 34.4907 25.1735C34.274 25.4952 34.1257 25.8568 34.0507 26.2352C34.0207 26.3852 34.0074 26.5468 33.9657 27.0668L33.9507 27.2352C33.8674 28.3052 33.8057 29.0785 33.5674 29.7518C33.2975 30.5171 32.8597 31.2123 32.2861 31.7862C31.7124 32.3601 31.0175 32.7983 30.2524 33.0685C29.579 33.3052 28.8057 33.3652 27.7357 33.4518L27.5674 33.4652C27.2889 33.4796 27.0113 33.5079 26.7357 33.5502C26.3568 33.627 25.9962 33.7765 25.674 33.9902C25.4487 34.1547 25.2317 34.3305 25.024 34.5168L24.8957 34.6268C24.079 35.3252 23.489 35.8268 22.8457 36.1352C22.1138 36.4852 21.3128 36.6669 20.5015 36.6669C19.6902 36.6669 18.8892 36.4852 18.1574 36.1352C17.5124 35.8285 16.924 35.3252 16.1057 34.6268L15.9757 34.5168C15.7691 34.3306 15.5532 34.1548 15.329 33.9902C15.0063 33.7763 14.6452 33.6268 14.2657 33.5502C13.9901 33.5079 13.7125 33.4796 13.434 33.4652L13.2657 33.4502C12.1957 33.3668 11.4224 33.3052 10.749 33.0668C9.98373 32.797 9.28859 32.3592 8.71465 31.7856C8.14071 31.2119 7.70255 30.517 7.43235 29.7518C7.19569 29.0785 7.13402 28.3052 7.04902 27.2352L7.03569 27.0668C7.02128 26.7884 6.99292 26.5108 6.95069 26.2352C6.87381 25.8562 6.7244 25.4957 6.51069 25.1735C6.34612 24.9482 6.17035 24.7312 5.98402 24.5235L5.87402 24.3952C5.17735 23.5785 4.67402 22.9885 4.36569 22.3452C4.01566 21.6133 3.83398 20.8123 3.83398 20.001C3.83398 19.1897 4.01566 18.3887 4.36569 17.6568C4.67402 17.0118 5.17735 16.4235 5.87402 15.6052L5.98402 15.4752C6.17026 15.2685 6.34603 15.0527 6.51069 14.8285C6.72735 14.5068 6.87569 14.1452 6.95069 13.7652C6.98069 13.6152 6.99569 13.4535 7.03569 12.9335L7.04902 12.7652C7.13402 11.6952 7.19569 10.9218 7.43235 10.2485C7.70234 9.48303 8.14041 8.78778 8.71435 8.21383C9.2883 7.63988 9.98355 7.20182 10.749 6.93183C11.4224 6.69517 12.1957 6.6335 13.2657 6.5485L13.434 6.53517C13.7125 6.52076 13.9901 6.49239 14.2657 6.45017C14.6457 6.37517 15.0074 6.22517 15.329 6.01017C15.454 5.92517 15.579 5.82183 15.9757 5.4835L16.1057 5.3735C16.9224 4.67683 17.514 4.1735 18.1574 3.86517ZM21.7607 6.1285C21.3666 5.94074 20.9356 5.8433 20.499 5.8433C20.0625 5.8433 19.6314 5.94074 19.2374 6.1285C18.929 6.27517 18.604 6.54017 17.6024 7.39183L17.5524 7.4335C17.224 7.7135 16.9857 7.9185 16.724 8.0935C16.1257 8.4935 15.4557 8.77183 14.749 8.91017C14.4407 8.97183 14.1274 8.99683 13.6957 9.03183L13.6324 9.03683C12.3207 9.14183 11.9057 9.18517 11.5824 9.2985C10.749 9.5935 10.0924 10.2485 9.79902 11.0835C9.68235 11.4068 9.64069 11.8218 9.53569 13.1335L9.53069 13.1968C9.49735 13.6285 9.47069 13.9418 9.41069 14.2502C9.27069 14.9568 8.99402 15.6268 8.59402 16.2252C8.41735 16.4868 8.21235 16.7252 7.93235 17.0552L7.89069 17.1035C7.03902 18.1035 6.77402 18.4302 6.62735 18.7368C6.43933 19.1311 6.34176 19.5625 6.34176 19.9993C6.34176 20.4362 6.43933 20.8675 6.62735 21.2618C6.77402 21.5702 7.03902 21.8952 7.89069 22.8968L7.93235 22.9468C8.21235 23.2752 8.41735 23.5135 8.59235 23.7752C8.99235 24.3735 9.27069 25.0435 9.40902 25.7502C9.47069 26.0585 9.49569 26.3718 9.53069 26.8035L9.53569 26.8668C9.64069 28.1785 9.68402 28.5935 9.79735 28.9168C10.0924 29.7502 10.7474 30.4068 11.5824 30.7002C11.9057 30.8168 12.3207 30.8585 13.6324 30.9635L13.6957 30.9685C14.1274 31.0018 14.4407 31.0285 14.749 31.0885C15.4557 31.2285 16.1257 31.5052 16.724 31.9052C16.9857 32.0818 17.224 32.2868 17.554 32.5668L17.6024 32.6085C18.6024 33.4602 18.929 33.7252 19.2357 33.8718C19.63 34.0599 20.0613 34.1574 20.4982 34.1574C20.935 34.1574 21.3664 34.0599 21.7607 33.8718C22.069 33.7252 22.394 33.4602 23.3957 32.6085L23.4457 32.5668C23.774 32.2868 24.0124 32.0818 24.274 31.9068C24.8724 31.5068 25.5424 31.2285 26.249 31.0902C26.5977 31.031 26.9493 30.9904 27.3024 30.9685L27.3657 30.9635C28.6774 30.8585 29.0924 30.8152 29.4157 30.7018C30.249 30.4068 30.9057 29.7518 31.199 28.9168C31.3157 28.5935 31.3574 28.1768 31.4624 26.8668L31.4674 26.8035C31.4886 26.45 31.5287 26.0978 31.5874 25.7485C31.7274 25.0435 32.004 24.3735 32.404 23.7752C32.5807 23.5135 32.7857 23.2752 33.0657 22.9452L33.1074 22.8968C33.959 21.8968 34.224 21.5702 34.3707 21.2635C34.5587 20.8692 34.6563 20.4378 34.6563 20.001C34.6563 19.5641 34.5587 19.1328 34.3707 18.7385C34.224 18.4302 33.959 18.1052 33.1074 17.1035L33.0657 17.0535C32.7857 16.7252 32.5807 16.4868 32.4057 16.2252C32.0069 15.6266 31.7295 14.9556 31.589 14.2502C31.5299 13.9015 31.4893 13.5498 31.4674 13.1968L31.4624 13.1335C31.3574 11.8218 31.314 11.4068 31.2007 11.0835C30.9057 10.2502 30.2507 9.5935 29.4157 9.30017C29.0924 9.1835 28.6757 9.14183 27.3657 9.03683L27.3024 9.03183C26.9488 9.01054 26.5966 8.97049 26.2474 8.91183C25.5425 8.77116 24.8721 8.49371 24.274 8.09517C24.0124 7.9185 23.774 7.7135 23.444 7.4335L23.3957 7.39183C22.3957 6.54017 22.069 6.27517 21.7624 6.1285" fill="white"/>
<path fill-rule="evenodd" clip-rule="evenodd" d="M26.4031 14.0945C26.5197 14.2111 26.6121 14.3494 26.6752 14.5017C26.7383 14.654 26.7708 14.8172 26.7708 14.982C26.7708 15.1468 26.7383 15.3101 26.6752 15.4623C26.6121 15.6146 26.5197 15.753 26.4031 15.8695L16.3681 25.9028C16.1308 26.1276 15.8152 26.251 15.4883 26.2467C15.1615 26.2423 14.8492 26.1106 14.618 25.8796C14.3868 25.6486 14.2548 25.3364 14.2501 25.0096C14.2455 24.6828 14.3685 24.367 14.5931 24.1295L24.6281 14.0962C24.7446 13.9796 24.883 13.8872 25.0353 13.8241C25.1876 13.761 25.3508 13.7285 25.5156 13.7285C25.6804 13.7285 25.8437 13.761 25.9959 13.8241C26.1482 13.8872 26.2866 13.9796 26.4031 14.0962" fill="white"/>
<path d="M26.3559 24.1819C26.363 24.4059 26.325 24.6292 26.2441 24.8383C26.1633 25.0473 26.0412 25.2381 25.8852 25.3991C25.7292 25.5601 25.5424 25.6881 25.336 25.7755C25.1295 25.8629 24.9076 25.908 24.6834 25.908C24.4592 25.908 24.2373 25.8629 24.0309 25.7755C23.8245 25.6881 23.6377 25.5601 23.4817 25.3991C23.3257 25.2381 23.2036 25.0473 23.1228 24.8383C23.0419 24.6292 23.0039 24.4059 23.0109 24.1819C23.0247 23.7474 23.2069 23.3354 23.519 23.0329C23.8312 22.7305 24.2488 22.5613 24.6834 22.5613C25.1181 22.5613 25.5357 22.7305 25.8478 23.0329C26.16 23.3354 26.3422 23.7474 26.3559 24.1819ZM17.9943 15.8185C18.0013 16.0426 17.9633 16.2658 17.8825 16.4749C17.8016 16.684 17.6795 16.8747 17.5235 17.0357C17.3675 17.1967 17.1807 17.3248 16.9743 17.4122C16.7679 17.4996 16.546 17.5447 16.3218 17.5447C16.0976 17.5447 15.8757 17.4996 15.6692 17.4122C15.4628 17.3248 15.276 17.1967 15.12 17.0357C14.964 16.8747 14.842 16.684 14.7611 16.4749C14.6802 16.2658 14.6422 16.0426 14.6493 15.8185C14.663 15.3841 14.8452 14.972 15.1574 14.6696C15.4695 14.3671 15.8871 14.198 16.3218 14.198C16.7564 14.198 17.174 14.3671 17.4862 14.6696C17.7983 14.972 17.9806 15.3841 17.9943 15.8185Z" fill="white"/>
</svg>
