<svg width="200" height="61" viewBox="0 0 200 61" fill="none" xmlns="http://www.w3.org/2000/svg">
<path d="M15.2032 49.8402C14.3176 50.8072 13.0876 51.2903 11.5132 51.2903C10.3539 51.2903 9.36976 51.0653 8.56106 50.6148C7.75182 50.1646 7.09578 49.5659 6.59295 48.8186C6.08969 48.0723 5.72378 47.2319 5.49413 46.2977C5.26459 45.3646 5.14976 44.403 5.14976 43.4145C5.14976 42.3821 5.26459 41.3825 5.49413 40.4158C5.72378 39.4492 6.08969 38.5868 6.59295 37.8291C7.09578 37.071 7.75182 36.4671 8.56106 36.0166C9.36976 35.5667 10.3539 35.3411 11.5132 35.3411C12.1471 35.3411 12.7539 35.4455 13.3335 35.6541C13.9127 35.8632 14.4325 36.1541 14.8917 36.5272C15.3509 36.9011 15.7332 37.3347 16.0397 37.8291C16.3457 38.3232 16.5424 38.867 16.63 39.4603H21.6158C21.4625 38.0983 21.091 36.8897 20.5006 35.8352C19.9102 34.7807 19.1609 33.8969 18.2538 33.1827C17.3461 32.469 16.3185 31.9255 15.1704 31.5516C14.0224 31.1782 12.8032 30.9913 11.5132 30.9913C9.71982 30.9913 8.10701 31.3101 6.67497 31.9469C5.2425 32.5843 4.03453 33.4627 3.05053 34.5831C2.06653 35.7036 1.31207 37.0164 0.787264 38.5208C0.262457 40.0258 0 41.6572 0 43.4145C0 45.1278 0.262457 46.7261 0.787264 48.209C1.31207 49.692 2.06653 50.9828 3.05053 52.0811C4.03453 53.1798 5.2425 54.0418 6.67497 54.6679C8.10701 55.2939 9.71982 55.6069 11.5132 55.6069C12.9564 55.6069 14.2792 55.3872 15.4821 54.9478C16.6844 54.5086 17.7341 53.8719 18.6309 53.0368C19.5273 52.202 20.249 51.1914 20.7958 50.005C21.3421 48.8186 21.6814 47.4896 21.8126 46.0178H16.8269C16.63 47.5996 16.0889 48.8738 15.2032 49.8402Z" fill="white"/>
<path d="M39.7079 46.2977C39.4782 47.2319 39.1119 48.0723 38.6091 48.8186C38.1058 49.5659 37.4498 50.1646 36.641 50.6148C35.8317 51.0653 34.8477 51.2903 33.689 51.2903C32.5297 51.2903 31.5457 51.0653 30.7368 50.6148C29.9276 50.1646 29.2716 49.5659 28.7688 48.8186C28.2655 48.0723 27.8996 47.2319 27.6699 46.2977C27.4404 45.3646 27.3255 44.403 27.3255 43.4145C27.3255 42.3821 27.4404 41.3826 27.6699 40.4158C27.8996 39.4492 28.2655 38.5868 28.7688 37.8291C29.2716 37.071 29.9276 36.4671 30.7368 36.0166C31.5457 35.5667 32.5297 35.3411 33.689 35.3411C34.8477 35.3411 35.8317 35.5667 36.641 36.0166C37.4498 36.4671 38.1058 37.071 38.6091 37.8291C39.1119 38.5868 39.4782 39.4492 39.7079 40.4158C39.9375 41.3826 40.0524 42.3821 40.0524 43.4145C40.0524 44.403 39.9375 45.3646 39.7079 46.2977ZM42.1516 34.5831C41.1676 33.4627 39.9647 32.5843 38.5434 31.9469C37.1217 31.3101 35.5037 30.9913 33.689 30.9913C31.8956 30.9913 30.2828 31.3101 28.8509 31.9469C27.4183 32.5843 26.2103 33.4627 25.2263 34.5831C24.2423 35.7036 23.4879 37.0164 22.963 38.5208C22.4382 40.0258 22.1758 41.6573 22.1758 43.4145C22.1758 45.1279 22.4382 46.7262 22.963 48.209C23.4879 49.692 24.2423 50.9828 25.2263 52.0811C26.2103 53.1798 27.4183 54.0418 28.8509 54.6679C30.2828 55.2939 31.8956 55.6069 33.689 55.6069C35.5037 55.6069 37.1217 55.2939 38.5434 54.6679C39.9647 54.0418 41.1676 53.1798 42.1516 52.0811C43.1356 50.9828 43.8899 49.692 44.4149 48.209C44.9397 46.7262 45.202 45.1279 45.202 43.4145C45.202 41.6573 44.9397 40.0258 44.4149 38.5208C43.8899 37.0164 43.1356 35.7036 42.1516 34.5831Z" fill="white"/>
<path d="M74.6966 45.9845L77.747 37.3511H77.8126L80.7647 45.9845H74.6966ZM59.6964 41.4042C59.1061 41.9314 58.2204 42.195 57.0396 42.195H51.3978V35.5717H57.0396C58.2204 35.5717 59.1061 35.8298 59.6964 36.346C60.2868 36.8622 60.5821 37.6917 60.5821 38.8339C60.5821 40.0201 60.2868 40.8769 59.6964 41.4042ZM75.1886 31.5515L66.3647 54.9934C66.1529 54.6803 65.9895 54.3104 65.8794 53.8768C65.759 53.4045 65.6714 52.9046 65.617 52.3774C65.5621 51.8501 65.5238 51.3342 65.5022 50.8285C65.4802 50.3234 65.4581 49.8844 65.4366 49.5107C65.3925 48.9174 65.3105 48.3243 65.1906 47.731C65.0701 47.1377 64.879 46.5944 64.6166 46.0999C64.3542 45.6055 64.0149 45.177 63.5998 44.815C63.1842 44.4521 62.6593 44.1837 62.0253 44.0075V43.9415C63.3374 43.4142 64.2829 42.6455 64.8626 41.6347C65.4417 40.6247 65.7319 39.4268 65.7319 38.0428C65.7319 37.1423 65.573 36.3021 65.2563 35.522C64.9389 34.7425 64.4797 34.0556 63.8786 33.4625C63.2769 32.8692 62.5552 32.403 61.7137 32.0621C60.8717 31.7218 59.9261 31.5515 58.8764 31.5515H46.248V55.0795H51.3978V45.8856H56.5476C57.8375 45.8856 58.7668 46.1714 59.3356 46.7426C59.9041 47.314 60.2756 48.2144 60.4509 49.4447C60.5821 50.3893 60.6805 51.3778 60.746 52.4102C60.8116 53.4432 60.9864 54.3328 61.2709 55.0795H66.3323H66.4206H71.5148L73.3517 49.84H82.1096L83.8807 55.0795H89.2273L80.4695 31.5515H75.1886Z" fill="white"/>
<path d="M134.596 46.9733C134.268 47.8744 133.83 48.6044 133.284 49.1645C132.737 49.7246 132.114 50.1256 131.415 50.3672C130.714 50.6093 129.993 50.7296 129.25 50.7296H124.658V35.901H128.331C129.599 35.901 130.665 36.0824 131.529 36.4448C132.393 36.8073 133.087 37.3292 133.612 38.0099C134.137 38.6912 134.514 39.5094 134.744 40.4651C134.973 41.4208 135.088 42.4914 135.088 43.6779C135.088 44.9742 134.924 46.0725 134.596 46.9733ZM137.204 34.4509C136.253 33.4849 135.126 32.7597 133.825 32.2763C132.524 31.7933 131.119 31.5514 129.61 31.5514H119.508V55.0795H129.61C131.403 55.0795 132.961 54.7779 134.285 54.1732C135.607 53.5693 136.712 52.7397 137.598 51.6852C138.483 50.6308 139.144 49.3786 139.582 47.929C140.019 46.4789 140.238 44.8972 140.238 43.1834C140.238 41.2286 139.97 39.5256 139.434 38.0759C138.898 36.6262 138.155 35.4182 137.204 34.4509Z" fill="white"/>
<path d="M146.501 44.9631H157.85V40.9429H146.501V35.9009H158.867V31.5514H141.352V55.0795H159.13V50.7296H146.501V44.9631Z" fill="white"/>
<path d="M175.1 47.3357H175.034L165.26 31.5514H160.143V55.0795H164.964V39.328H165.03L174.772 55.0795H179.922V31.5514H175.1V47.3357Z" fill="white"/>
<path d="M180.809 31.5514V35.901H187.828V55.0795H192.978V35.901H199.997V31.5514H180.809Z" fill="white"/>
<path d="M107.711 48.4648C107.953 46.2109 108.497 43.2838 109.022 40.7539C109.56 38.9132 110.205 37.3 110.923 36.3097C113.694 32.9957 116.695 30.6313 121.006 29.2742C124.153 28.2836 127.235 27.0746 130.307 25.8635C132.094 25.1592 133.805 24.259 135.669 23.3912C134.922 22.2041 134.325 21.2574 133.845 20.4946C129.483 22.2326 125.341 23.883 121.198 25.5335C121.09 25.3908 120.981 25.2482 120.872 25.1056C122.476 21.0814 124.079 17.0572 125.717 12.9446C124.627 12.4569 123.635 12.0131 122.297 11.4143C120.501 16.3079 118.761 21.0509 117.017 25.7917C116.847 26.2543 116.772 26.8698 116.435 27.1337C114.478 28.6672 112.455 30.1166 110.275 31.7264C110.174 30.5515 110.07 29.5118 109.967 28.4897C109.816 26.9898 110.075 25.6815 111.055 24.3788C114.629 19.6315 117.329 14.3706 119.799 8.80116C118.667 8.31325 117.636 7.86907 116.535 7.39435C114.275 12.1454 112.074 16.7649 108.953 21.1068C108.593 19.928 108.388 18.9885 108.019 18.1191C107.569 17.0598 107.852 16.3445 108.529 15.4295C111.175 11.8523 113.681 8.17097 116.316 4.41979C115.285 3.62789 114.398 2.94696 113.359 2.1489C111.046 5.62895 108.829 8.9654 106.613 12.3019C106.388 12.2198 106.163 12.1376 105.939 12.0555C106.289 9.10812 106.638 6.16091 107.006 3.06308C106.084 2.73458 105.032 2.35951 103.893 1.95389C102.388 7.16561 101.842 12.1338 103.801 17.1911C104.664 19.4197 105.16 21.7945 105.762 24.119C105.862 24.5021 105.745 25.0684 105.551 25.3737C104.25 27.4127 102.134 30.3315 98.7964 32.325C98.593 29.8845 98.3732 27.5906 98.2268 25.2918C98.1794 24.5489 98.2552 23.7801 98.3954 23.0465C98.8001 20.9273 99.213 18.807 99.7187 16.7106C101.049 11.1966 100.782 5.67509 100.029 -0.000366211C98.7845 0.194641 97.6813 0.367573 96.5194 0.549618C97.0718 6.03698 97.6005 11.3686 95.7854 17.0386C94.5784 13.3235 93.5032 10.0141 92.4201 6.68068H88.8561C89.1751 7.93521 89.4076 9.06131 89.7486 10.1536C91.2289 14.894 92.7943 19.6082 94.2225 24.3642C95.2081 27.6456 95.3732 30.9889 94.595 34.1261C92.7568 31.8607 90.8738 29.6078 89.0853 27.2818C88.698 26.7781 88.4644 26.0069 88.4796 25.3667C88.5346 23.0584 88.7122 20.7522 88.8707 18.4471C88.9858 16.7714 89.1437 15.0988 89.2875 13.3651C87.9988 13.2131 86.9343 13.0875 85.7598 12.9488C85.481 15.8238 85.2177 18.5401 84.9544 21.2564C84.8331 21.2839 84.7118 21.3115 84.5905 21.3389C83.7842 18.3418 82.9778 15.3449 82.1608 12.3081C81.005 12.5365 79.9376 12.7475 78.8809 12.9562C79.7012 20.2902 81.7387 24.7626 86.5692 29.936C87.254 30.6694 87.9133 31.4271 88.6072 32.1514C91.0905 34.7434 92.9077 38.4244 92.5873 40.3823C92.5819 40.4152 92.5484 40.7758 92.4977 41.3383C92.1634 43.1055 91.8377 44.9823 91.4803 47.196C91.4803 47.196 90.5453 52.1676 90.2391 55.3559C89.8899 58.9909 91.7609 60.9996 94.7813 60.9996H104.867C104.885 59.3014 104.903 57.6033 104.92 55.9051C102.969 55.9204 99.2313 55.9508 97.2804 55.9508C95.9706 55.9508 95.2691 55.5135 95.4562 54.1038C95.6689 52.5008 97.0933 44.2356 97.483 42.5439C97.4974 42.4818 97.5129 42.4169 97.5291 42.3509C97.575 42.1682 97.6226 41.9852 97.6709 41.802C97.9036 40.9413 98.2272 39.8952 98.5295 38.9539C98.9494 37.7438 99.3957 36.717 99.8219 36.1217C100.419 35.2876 101.256 34.7121 103.127 32.9264C103.764 32.3189 104.639 31.5209 105.497 30.8587C105.639 32.4025 105.367 33.8731 105.022 35.4093C104.44 37.6645 103.947 39.9391 103.501 42.7006C103.501 42.7006 102.8 46.5286 102.494 49.717C102.145 53.3519 104.016 55.3607 107.036 55.3607H117.122C117.14 53.6624 117.158 51.9643 117.175 50.2662C115.224 50.2814 111.486 50.3119 109.535 50.3119C108.226 50.3119 107.56 49.8789 107.711 48.4648Z" fill="white"/>
</svg>
