<svg width="41" height="40" viewBox="0 0 41 40" fill="none" xmlns="http://www.w3.org/2000/svg">
<path fill-rule="evenodd" clip-rule="evenodd" d="M18.1574 3.86498C18.889 3.51522 19.6897 3.33368 20.5007 3.33368C21.3117 3.33368 22.1123 3.51522 22.844 3.86498C23.489 4.17332 24.0774 4.67665 24.8957 5.37332L25.0257 5.48332C25.4224 5.82165 25.5474 5.92498 25.674 6.00998C25.9957 6.22665 26.3574 6.37498 26.7357 6.44998C26.8857 6.47998 27.0474 6.49498 27.5674 6.53498L27.7357 6.54832C28.8057 6.63332 29.579 6.69498 30.2524 6.93165C31.0172 7.20269 31.7119 7.64112 32.2857 8.21493C32.8595 8.78873 33.298 9.48343 33.569 10.2483C33.8057 10.9216 33.8657 11.695 33.9524 12.765L33.9657 12.9333C34.0057 13.4533 34.0207 13.6166 34.0507 13.765C34.1257 14.145 34.2757 14.5066 34.4907 14.8283C34.5757 14.9533 34.679 15.0783 35.0174 15.475L35.1274 15.605C35.8257 16.4216 36.3274 17.0116 36.6357 17.655C37.344 19.1383 37.344 20.8616 36.6357 22.3433C36.329 22.9883 35.8257 23.5766 35.1274 24.395L35.0174 24.525C34.8311 24.7322 34.6553 24.9485 34.4907 25.1733C34.274 25.495 34.1257 25.8566 34.0507 26.235C34.0207 26.385 34.0074 26.5466 33.9657 27.0666L33.9507 27.235C33.8674 28.305 33.8057 29.0783 33.5674 29.7516C33.2975 30.5169 32.8597 31.2121 32.2861 31.786C31.7124 32.36 31.0175 32.7981 30.2524 33.0683C29.579 33.305 28.8057 33.365 27.7357 33.4516L27.5674 33.465C27.2889 33.4794 27.0113 33.5078 26.7357 33.55C26.3568 33.6269 25.9962 33.7763 25.674 33.99C25.4487 34.1545 25.2317 34.3303 25.024 34.5166L24.8957 34.6266C24.079 35.325 23.489 35.8266 22.8457 36.135C22.1138 36.485 21.3128 36.6667 20.5015 36.6667C19.6902 36.6667 18.8892 36.485 18.1574 36.135C17.5124 35.8283 16.924 35.325 16.1057 34.6266L15.9757 34.5166C15.7691 34.3304 15.5532 34.1546 15.329 33.99C15.0063 33.7761 14.6452 33.6267 14.2657 33.55C13.9901 33.5078 13.7125 33.4794 13.434 33.465L13.2657 33.45C12.1957 33.3666 11.4224 33.305 10.749 33.0666C9.98373 32.7968 9.28859 32.359 8.71465 31.7854C8.14071 31.2117 7.70255 30.5168 7.43235 29.7516C7.19569 29.0783 7.13402 28.305 7.04902 27.235L7.03569 27.0666C7.02128 26.7882 6.99292 26.5106 6.95069 26.235C6.87381 25.856 6.7244 25.4955 6.51069 25.1733C6.34612 24.948 6.17035 24.731 5.98402 24.5233L5.87402 24.395C5.17735 23.5783 4.67402 22.9883 4.36569 22.345C4.01566 21.6131 3.83398 20.8121 3.83398 20.0008C3.83398 19.1895 4.01566 18.3885 4.36569 17.6566C4.67402 17.0116 5.17735 16.4233 5.87402 15.605L5.98402 15.475C6.17026 15.2684 6.34603 15.0525 6.51069 14.8283C6.72735 14.5066 6.87569 14.145 6.95069 13.765C6.98069 13.615 6.99569 13.4533 7.03569 12.9333L7.04902 12.765C7.13402 11.695 7.19569 10.9216 7.43235 10.2483C7.70234 9.48285 8.14041 8.7876 8.71435 8.21365C9.2883 7.6397 9.98355 7.20164 10.749 6.93165C11.4224 6.69498 12.1957 6.63332 13.2657 6.54832L13.434 6.53498C13.7125 6.52058 13.9901 6.49221 14.2657 6.44998C14.6457 6.37498 15.0074 6.22498 15.329 6.00998C15.454 5.92498 15.579 5.82165 15.9757 5.48332L16.1057 5.37332C16.9224 4.67665 17.514 4.17332 18.1574 3.86498ZM21.7607 6.12832C21.3666 5.94055 20.9356 5.84312 20.499 5.84312C20.0625 5.84312 19.6314 5.94055 19.2374 6.12832C18.929 6.27498 18.604 6.53998 17.6024 7.39165L17.5524 7.43332C17.224 7.71332 16.9857 7.91832 16.724 8.09332C16.1257 8.49332 15.4557 8.77165 14.749 8.90998C14.4407 8.97165 14.1274 8.99665 13.6957 9.03165L13.6324 9.03665C12.3207 9.14165 11.9057 9.18498 11.5824 9.29832C10.749 9.59332 10.0924 10.2483 9.79902 11.0833C9.68235 11.4066 9.64069 11.8216 9.53569 13.1333L9.53069 13.1966C9.49735 13.6283 9.47069 13.9416 9.41069 14.25C9.27069 14.9566 8.99402 15.6266 8.59402 16.225C8.41735 16.4866 8.21235 16.725 7.93235 17.055L7.89069 17.1033C7.03902 18.1033 6.77402 18.43 6.62735 18.7366C6.43933 19.131 6.34176 19.5623 6.34176 19.9991C6.34176 20.436 6.43933 20.8673 6.62735 21.2616C6.77402 21.57 7.03902 21.895 7.89069 22.8966L7.93235 22.9466C8.21235 23.275 8.41735 23.5133 8.59235 23.775C8.99235 24.3733 9.27069 25.0433 9.40902 25.75C9.47069 26.0583 9.49569 26.3716 9.53069 26.8033L9.53569 26.8666C9.64069 28.1783 9.68402 28.5933 9.79735 28.9166C10.0924 29.75 10.7474 30.4066 11.5824 30.7C11.9057 30.8166 12.3207 30.8583 13.6324 30.9633L13.6957 30.9683C14.1274 31.0016 14.4407 31.0283 14.749 31.0883C15.4557 31.2283 16.1257 31.505 16.724 31.905C16.9857 32.0816 17.224 32.2867 17.554 32.5667L17.6024 32.6083C18.6024 33.46 18.929 33.725 19.2357 33.8716C19.63 34.0597 20.0613 34.1572 20.4982 34.1572C20.935 34.1572 21.3664 34.0597 21.7607 33.8716C22.069 33.725 22.394 33.46 23.3957 32.6083L23.4457 32.5667C23.774 32.2867 24.0124 32.0816 24.274 31.9066C24.8724 31.5066 25.5424 31.2283 26.249 31.09C26.5977 31.0308 26.9493 30.9902 27.3024 30.9683L27.3657 30.9633C28.6774 30.8583 29.0924 30.815 29.4157 30.7016C30.249 30.4066 30.9057 29.7516 31.199 28.9166C31.3157 28.5933 31.3574 28.1766 31.4624 26.8666L31.4674 26.8033C31.4886 26.4498 31.5287 26.0976 31.5874 25.7483C31.7274 25.0433 32.004 24.3733 32.404 23.775C32.5807 23.5133 32.7857 23.275 33.0657 22.945L33.1074 22.8966C33.959 21.8966 34.224 21.57 34.3707 21.2633C34.5587 20.869 34.6563 20.4377 34.6563 20.0008C34.6563 19.564 34.5587 19.1326 34.3707 18.7383C34.224 18.43 33.959 18.105 33.1074 17.1033L33.0657 17.0533C32.7857 16.725 32.5807 16.4866 32.4057 16.225C32.0069 15.6264 31.7295 14.9554 31.589 14.25C31.5299 13.9013 31.4893 13.5497 31.4674 13.1966L31.4624 13.1333C31.3574 11.8216 31.314 11.4066 31.2007 11.0833C30.9057 10.25 30.2507 9.59332 29.4157 9.29998C29.0924 9.18332 28.6757 9.14165 27.3657 9.03665L27.3024 9.03165C26.9488 9.01036 26.5966 8.9703 26.2474 8.91165C25.5425 8.77098 24.8721 8.49352 24.274 8.09498C24.0124 7.91832 23.774 7.71332 23.444 7.43332L23.3957 7.39165C22.3957 6.53998 22.069 6.27498 21.7624 6.12832" fill="url(#paint0_linear_2644_7062)"/>
<path fill-rule="evenodd" clip-rule="evenodd" d="M26.4031 14.0948C26.5197 14.2114 26.6121 14.3497 26.6752 14.502C26.7383 14.6543 26.7708 14.8175 26.7708 14.9823C26.7708 15.1471 26.7383 15.3104 26.6752 15.4626C26.6121 15.6149 26.5197 15.7533 26.4031 15.8698L16.3681 25.9031C16.1308 26.1279 15.8152 26.2513 15.4883 26.247C15.1615 26.2426 14.8492 26.1109 14.618 25.8799C14.3868 25.6489 14.2548 25.3368 14.2501 25.0099C14.2455 24.6831 14.3685 24.3673 14.5931 24.1298L24.6281 14.0965C24.7446 13.9799 24.883 13.8875 25.0353 13.8244C25.1876 13.7613 25.3508 13.7288 25.5156 13.7288C25.6804 13.7288 25.8437 13.7613 25.9959 13.8244C26.1482 13.8875 26.2866 13.9799 26.4031 14.0965" fill="url(#paint1_linear_2644_7062)"/>
<path d="M26.3559 24.1818C26.363 24.4059 26.325 24.6291 26.2441 24.8382C26.1633 25.0473 26.0412 25.238 25.8852 25.399C25.7292 25.56 25.5424 25.688 25.336 25.7755C25.1295 25.8629 24.9076 25.9079 24.6834 25.9079C24.4592 25.9079 24.2373 25.8629 24.0309 25.7755C23.8245 25.688 23.6377 25.56 23.4817 25.399C23.3257 25.238 23.2036 25.0473 23.1228 24.8382C23.0419 24.6291 23.0039 24.4059 23.0109 24.1818C23.0247 23.7474 23.2069 23.3353 23.519 23.0329C23.8312 22.7304 24.2488 22.5613 24.6834 22.5613C25.1181 22.5613 25.5357 22.7304 25.8478 23.0329C26.16 23.3353 26.3422 23.7474 26.3559 24.1818ZM17.9943 15.8185C18.0013 16.0425 17.9633 16.2658 17.8825 16.4749C17.8016 16.684 17.6795 16.8747 17.5235 17.0357C17.3675 17.1967 17.1807 17.3247 16.9743 17.4121C16.7679 17.4996 16.546 17.5446 16.3218 17.5446C16.0976 17.5446 15.8757 17.4996 15.6692 17.4121C15.4628 17.3247 15.276 17.1967 15.12 17.0357C14.964 16.8747 14.842 16.684 14.7611 16.4749C14.6802 16.2658 14.6422 16.0425 14.6493 15.8185C14.663 15.384 14.8452 14.972 15.1574 14.6695C15.4695 14.3671 15.8871 14.1979 16.3218 14.1979C16.7564 14.1979 17.174 14.3671 17.4862 14.6695C17.7983 14.972 17.9806 15.384 17.9943 15.8185Z" fill="url(#paint2_linear_2644_7062)"/>
<defs>
<linearGradient id="paint0_linear_2644_7062" x1="8.93196" y1="3.33368" x2="38.2189" y2="19.0061" gradientUnits="userSpaceOnUse">
<stop stop-color="#FEBFFE"/>
<stop offset="1" stop-color="#002AFC"/>
</linearGradient>
<linearGradient id="paint1_linear_2644_7062" x1="16.1649" y1="13.7288" x2="27.1649" y2="19.6165" gradientUnits="userSpaceOnUse">
<stop stop-color="#FEBFFE"/>
<stop offset="1" stop-color="#002AFC"/>
</linearGradient>
<linearGradient id="paint2_linear_2644_7062" x1="16.4391" y1="14.1979" x2="26.7269" y2="19.7025" gradientUnits="userSpaceOnUse">
<stop stop-color="#FEBFFE"/>
<stop offset="1" stop-color="#002AFC"/>
</linearGradient>
</defs>
</svg>
