<svg width="43" height="44" viewBox="0 0 43 44" fill="none" xmlns="http://www.w3.org/2000/svg">
<path d="M21.5 0.5C15.7991 0.5 10.3267 2.76657 6.29883 6.79715C2.26681 10.8293 0.00115377 16.2977 0 22C0 27.6999 2.26758 33.1723 6.29883 37.2029C10.3267 41.2334 15.7991 43.5 21.5 43.5C27.2009 43.5 32.6733 41.2334 36.7012 37.2029C40.7324 33.1723 43 27.6999 43 22C43 16.3001 40.7324 10.8277 36.7012 6.79715C32.6733 2.76657 27.2009 0.5 21.5 0.5Z" fill="url(#paint0_linear_7002_6828)"/>
<path d="M9.72982 21.773C15.9984 19.0425 20.1775 17.2423 22.267 16.3724C28.24 13.8888 29.4796 13.4575 30.2892 13.4429C30.4672 13.44 30.8636 13.484 31.1223 13.6931C31.3373 13.8695 31.3978 14.108 31.428 14.2755C31.4549 14.4428 31.4918 14.8241 31.4616 15.1217C31.1391 18.5214 29.7383 26.7714 29.0261 30.5792C28.7271 32.1904 28.1325 32.7306 27.558 32.7833C26.3083 32.8982 25.361 31.9582 24.1516 31.1658C22.2603 29.9251 21.192 29.1532 19.3544 27.9428C17.2313 26.5439 18.6086 25.775 19.818 24.5186C20.1338 24.1897 25.6365 19.1859 25.7406 18.732C25.754 18.6753 25.7675 18.4636 25.6398 18.3521C25.5155 18.2402 25.3308 18.2785 25.1964 18.3088C25.0049 18.3518 21.9848 20.3499 16.1261 24.3029C15.2694 24.8921 14.4934 25.1794 13.7947 25.1642C13.0287 25.1478 11.5506 24.7302 10.4521 24.3734C9.10833 23.9357 8.03669 23.7043 8.13075 22.9608C8.17778 22.5738 8.71192 22.1778 9.72982 21.773Z" fill="white"/>
<defs>
<linearGradient id="paint0_linear_7002_6828" x1="2150" y1="0.5" x2="2150" y2="4300.5" gradientUnits="userSpaceOnUse">
<stop stop-color="#2AABEE"/>
<stop offset="1" stop-color="#229ED9"/>
</linearGradient>
</defs>
</svg>
