<svg width="43" height="44" viewBox="0 0 43 44" fill="none" xmlns="http://www.w3.org/2000/svg">
<g clip-path="url(#clip0_7002_6824)">
<path d="M36.765 6.67946C32.68 2.73062 27.305 0.5 21.5806 0.5C5.15104 0.5 -5.16538 18.3002 3.03867 32.4597L0 43.5L11.3502 40.5402C16.2952 43.2115 20.3462 42.975 21.5914 43.1327C40.6422 43.1327 50.1255 20.0847 36.7381 6.74933L36.765 6.67946Z" fill="white"/>
<path d="M21.6222 39.4705L21.6114 39.4687H21.5827C15.8817 39.4687 12.2392 36.7687 11.8809 36.6128L5.16211 38.3597L6.96273 31.829L6.53453 31.1572C4.76078 28.3335 3.81836 25.0816 3.81836 21.733C3.81836 5.97887 23.0698 -1.89909 34.2104 9.23612C45.3241 20.2549 37.5214 39.4705 21.6222 39.4705Z" fill="#25D366"/>
<path d="M31.366 26.1335L31.3499 26.2678C30.8106 25.9991 28.184 24.7145 27.6949 24.5371C26.5966 24.1304 26.9065 24.4726 24.7977 26.8877C24.4842 27.2371 24.1724 27.264 23.6403 27.0221C23.1028 26.7534 21.3774 26.189 19.3349 24.3615C17.7439 22.9371 16.6761 21.1902 16.3608 20.6527C15.8358 19.7462 16.9341 19.6172 17.9339 17.7252C18.113 17.3489 18.0216 17.0533 17.8891 16.7863C17.7547 16.5176 16.6851 13.8838 16.2371 12.8339C15.8071 11.7876 15.3646 11.9202 15.0331 11.9202C14.0011 11.8306 13.2469 11.8449 12.5821 12.5365C9.69039 15.7149 10.4196 18.9937 12.8939 22.4802C17.7565 28.8442 20.3472 30.016 25.0844 31.6428C26.3636 32.0495 27.53 31.9922 28.4527 31.8596C29.4811 31.6966 31.6186 30.5678 32.0647 29.3047C32.5216 28.0416 32.5216 26.9935 32.3872 26.7516C32.2546 26.5097 31.9035 26.3753 31.366 26.1335Z" fill="white"/>
</g>
<defs>
<clipPath id="clip0_7002_6824">
<rect width="43" height="43" fill="white" transform="translate(0 0.5)"/>
</clipPath>
</defs>
</svg>
