<svg width="32" height="32" viewBox="0 0 32 32" fill="none" xmlns="http://www.w3.org/2000/svg">
<g clip-path="url(#clip0_7006_6255)">
<path d="M27.36 4.59867C24.32 1.66 20.32 0 16.06 0C3.83333 0 -3.844 13.2467 2.26133 23.784L0 32L8.44667 29.7973C12.1267 31.7853 15.1413 31.6093 16.068 31.7267C30.2453 31.7267 37.3027 14.5747 27.34 4.65067L27.36 4.59867Z" fill="#25D366"/>
<path d="M16.0911 29.0012L16.0831 28.9999H16.0618C11.8191 28.9999 9.10846 26.9906 8.8418 26.8746L3.8418 28.1746L5.1818 23.3146L4.86313 22.8146C3.54313 20.7132 2.8418 18.2932 2.8418 15.8012C2.8418 4.07725 17.1685 -1.78542 25.4591 6.50125C33.7298 14.7013 27.9231 29.0012 16.0911 29.0012Z" fill="#25D366"/>
<path d="M23.3428 19.0761L23.3308 19.1761C22.9295 18.9761 20.9748 18.0201 20.6108 17.8881C19.7935 17.5854 20.0242 17.8401 18.4548 19.6374C18.2215 19.8974 17.9895 19.9174 17.5935 19.7374C17.1935 19.5374 15.9095 19.1174 14.3895 17.7574C13.2055 16.6974 12.4108 15.3974 12.1762 14.9974C11.7855 14.3228 12.6028 14.2268 13.3468 12.8188C13.4802 12.5388 13.4122 12.3188 13.3135 12.1201C13.2135 11.9201 12.4175 9.96008 12.0842 9.17875C11.7642 8.40008 11.4348 8.49875 11.1882 8.49875C10.4202 8.43208 9.85885 8.44275 9.36418 8.95742C7.21218 11.3228 7.75485 13.7627 9.59618 16.3574C13.2148 21.0934 15.1428 21.9654 18.6682 23.1761C19.6202 23.4788 20.4882 23.4361 21.1748 23.3374C21.9402 23.2161 23.5308 22.3761 23.8628 21.4361C24.2028 20.4961 24.2028 19.7161 24.1028 19.5361C24.0042 19.3561 23.7428 19.2561 23.3428 19.0761Z" fill="white"/>
</g>
<defs>
<clipPath id="clip0_7006_6255">
<rect width="32" height="32" fill="white"/>
</clipPath>
</defs>
</svg>
