<svg width="16" height="16" viewBox="0 0 16 16" fill="none" xmlns="http://www.w3.org/2000/svg">
<g clip-path="url(#clip0_497_42544)">
<path d="M10.7832 0.0957031C12.049 -0.214013 13.5352 -0.115136 14.7783 1.2373H14.7793L14.8965 1.37695C16.0792 2.83358 16.1993 4.91797 15.9277 6.6123L15.9287 6.61328C15.8756 7.0165 15.6955 7.39056 15.418 7.68359L15.2939 7.80371C14.989 8.07239 14.6076 8.23636 14.2061 8.27441L14.0322 8.2832H13.0371L12.3652 9.63965H12.8584L12.9131 9.64746C12.9671 9.66086 13.0169 9.68951 13.0557 9.73047C13.1071 9.78492 13.1357 9.85768 13.1357 9.93262C13.1356 10.0074 13.107 10.0794 13.0557 10.1338C13.0041 10.1883 12.9333 10.2205 12.8584 10.2246L12.8555 10.2256V10.2246H12.0752L11.4023 11.5801H12.0498L12.1055 11.5889C12.1591 11.6023 12.2085 11.6311 12.2471 11.6719C12.2984 11.7263 12.3271 11.7982 12.3271 11.873C12.3271 11.9481 12.2986 12.0207 12.2471 12.0752C12.1955 12.1296 12.1246 12.162 12.0498 12.166H11.1123L10.4404 13.5234H11.2393C11.3167 13.5235 11.3906 13.5546 11.4453 13.6094C11.5 13.6641 11.5311 13.738 11.5312 13.8154C11.5312 13.893 11.5001 13.9676 11.4453 14.0225C11.3906 14.0772 11.3167 14.1083 11.2393 14.1084H10.1494L9.71387 14.9854C9.55694 15.3048 9.3136 15.5736 9.01172 15.7617C8.70984 15.9498 8.36147 16.0498 8.00586 16.0498C7.65025 16.0498 7.30188 15.9499 7 15.7617C6.73576 15.597 6.51616 15.3707 6.36035 15.1025L6.29785 14.9854L5.86328 14.1084H4.77344C4.69592 14.1084 4.6212 14.0773 4.56641 14.0225C4.5118 13.9676 4.48145 13.8928 4.48145 13.8154C4.48156 13.7382 4.51193 13.6641 4.56641 13.6094C4.6212 13.5545 4.69592 13.5235 4.77344 13.5234H5.57227L4.90039 12.167H3.96484C3.88997 12.1629 3.81914 12.1297 3.76758 12.0752C3.71619 12.0208 3.68754 11.9489 3.6875 11.874C3.6875 11.799 3.71602 11.7263 3.76758 11.6719C3.81913 11.6175 3.89002 11.5851 3.96484 11.5811H4.60938L3.93652 10.2246H3.1543C3.07942 10.2206 3.00859 10.1883 2.95703 10.1338C2.90563 10.0794 2.87707 10.0074 2.87695 9.93262C2.87695 9.85762 2.9055 9.78493 2.95703 9.73047C3.00859 9.676 3.07942 9.6437 3.1543 9.63965H3.64746L2.97559 8.2832H1.9834C1.57709 8.28207 1.18322 8.1521 0.857422 7.91406L0.72168 7.80469C0.416651 7.53616 0.205903 7.17892 0.117188 6.78516L0.0859375 6.61426C0.0632309 6.44237 0.043575 6.26951 0.0253906 6.09766L-0.0234375 5.58398C-0.234053 2.97851 0.811386 1.1587 2.41699 0.379883C4.01267 -0.394087 6.14606 -0.131957 8.11816 1.38379C8.52276 1.08536 9.55117 0.39726 10.7832 0.0957031ZM6.82227 14.7256L6.91602 14.8838C7.01983 15.0342 7.15397 15.1621 7.31055 15.2588C7.51947 15.3877 7.76044 15.456 8.00586 15.4561C8.25136 15.4561 8.49217 15.3877 8.70117 15.2588C8.90998 15.13 9.0791 14.9458 9.18945 14.7266L9.49609 14.1084H6.5166L6.82227 14.7256ZM6.22656 13.5234H9.78613L10.459 12.167H5.55371L6.22656 13.5234ZM5.26367 11.5801H10.749L11.4219 10.2246H4.59082L5.26367 11.5801ZM4.30078 9.63965H11.7119L12.3838 8.2832H3.62891L4.30078 9.63965ZM4.03516 0.522461C2.61902 0.597794 1.66205 1.39169 1.10938 2.48926C0.555488 3.58932 0.408126 4.99392 0.618164 6.2793L0.665039 6.53418L0.666016 6.53809L0.686523 6.65625C0.747648 6.93034 0.894489 7.17914 1.10645 7.36621L1.2002 7.44238C1.42635 7.60808 1.70013 7.69909 1.98242 7.7002H14.0312C14.3353 7.69484 14.572 7.61843 14.7568 7.49512C14.9419 7.37167 15.0789 7.19869 15.1797 6.99316C15.3823 6.58023 15.4378 6.04313 15.4541 5.54102L15.4609 5.06152C15.4368 2.72797 14.5065 1.36564 13.2314 0.830078C11.8824 0.263571 10.128 0.613563 8.60645 1.75195C9.02335 2.07813 9.41674 2.43331 9.78223 2.81641L9.82324 2.86914C9.85643 2.923 9.86763 2.98092 9.86133 3.03711C9.85298 3.11074 9.81499 3.1779 9.7627 3.22656C9.71032 3.27522 9.64029 3.30821 9.56641 3.31055C9.49117 3.31279 9.41559 3.28314 9.35449 3.21289V3.21191C9.30745 3.16274 8.6968 2.52098 7.78711 1.875C6.84874 1.20868 5.59874 0.543659 4.32422 0.516602L4.03516 0.522461ZM2.57129 2.7666C3.10434 2.12457 3.91795 1.77043 4.95801 1.97559L5.16895 2.02441L5.22266 2.04492C5.27415 2.0704 5.3176 2.11059 5.34668 2.16113C5.38537 2.22841 5.39516 2.30884 5.375 2.38379C5.3548 2.45839 5.30614 2.52186 5.23926 2.56055C5.17202 2.59929 5.09152 2.61004 5.0166 2.58984V2.58887C4.08098 2.3516 3.39912 2.64438 2.97266 3.19629C2.59686 3.68281 2.41548 4.37633 2.44238 5.10059L2.4668 5.41211V5.41602L2.46387 5.47363C2.45493 5.53027 2.42904 5.58317 2.38965 5.62598C2.35026 5.66877 2.29981 5.69933 2.24414 5.71289L2.18652 5.7207C2.14833 5.72223 2.11011 5.71627 2.07422 5.70312C2.05619 5.6965 2.03877 5.6877 2.02246 5.67773L1.97656 5.64355C1.92036 5.59172 1.88683 5.51964 1.88281 5.44336V5.44434C1.75852 4.45191 2.00514 3.44866 2.57129 2.7666Z" fill="#0E2AF3" stroke="#0E2AF3" stroke-width="0.1"/>
</g>
<defs>
<clipPath id="clip0_497_42544">
<rect width="16" height="16" fill="white"/>
</clipPath>
</defs>
</svg>
