<svg width="24" height="24" viewBox="0 0 24 24" fill="none" xmlns="http://www.w3.org/2000/svg">
<path d="M10.922 3.61065C11.2417 2.53977 12.7583 2.53977 13.078 3.61065L14.2934 7.68156C14.4385 8.16774 14.8912 8.49659 15.3984 8.4844L19.6456 8.38233C20.7629 8.35548 21.2315 9.79778 20.3119 10.4328L16.8158 12.8467C16.3982 13.1349 16.2254 13.667 16.3937 14.1457L17.8032 18.1535C18.174 19.2078 16.9471 20.0992 16.059 19.4207L12.6829 16.8417C12.2797 16.5337 11.7203 16.5337 11.3171 16.8417L7.94097 19.4207C7.05287 20.0992 5.82597 19.2078 6.19676 18.1535L7.60631 14.1457C7.77464 13.667 7.60176 13.1349 7.18423 12.8467L3.68814 10.4328C2.76847 9.79778 3.2371 8.35548 4.35437 8.38233L8.60161 8.4844C9.10885 8.49659 9.56147 8.16774 9.70662 7.68156L10.922 3.61065Z" fill="url(#paint0_linear_2775_7533)"/>
<defs>
<linearGradient id="paint0_linear_2775_7533" x1="3.67059" y1="2.83553e-06" x2="24.7574" y2="11.2843" gradientUnits="userSpaceOnUse">
<stop stop-color="#FEBFFE"/>
<stop offset="1" stop-color="#002AFC"/>
</linearGradient>
</defs>
</svg>
