<svg width="24" height="24" viewBox="0 0 24 24" fill="none" xmlns="http://www.w3.org/2000/svg">
<path d="M11.292 3.18066C11.5109 2.55092 12.3587 2.51136 12.6562 3.0625L12.708 3.18066L14.21 7.5C14.4031 8.0555 14.9012 8.44406 15.4795 8.50098L15.5967 8.50781L20.1689 8.60059C20.8355 8.61417 21.1352 9.40902 20.7031 9.8623L20.6074 9.94824L16.9619 12.7119C16.4934 13.0674 16.2785 13.661 16.4033 14.2285L16.4326 14.3408L17.7568 18.7188C17.9498 19.3567 17.2872 19.8876 16.7227 19.6172L16.6113 19.5518L12.8564 16.9395C12.3736 16.6036 11.7425 16.5819 11.2412 16.876L11.1436 16.9395L7.38867 19.5518C6.84144 19.9323 6.13159 19.4654 6.21484 18.8447L6.24316 18.7188L7.56738 14.3408C7.73748 13.778 7.56217 13.172 7.12793 12.7861L7.03809 12.7119L3.39258 9.94824C2.86174 9.54548 3.08647 8.72621 3.70215 8.61328L3.83105 8.60059L8.40332 8.50781C8.9913 8.49583 9.51424 8.14175 9.74707 7.60938L9.79004 7.5L11.292 3.18066Z" stroke="url(#paint0_linear_7001_4987)" stroke-width="0.75"/>
<defs>
<linearGradient id="paint0_linear_7001_4987" x1="3.67059" y1="2.83553e-06" x2="24.7574" y2="11.2843" gradientUnits="userSpaceOnUse">
<stop stop-color="#FEBFFE"/>
<stop offset="1" stop-color="#002AFC"/>
</linearGradient>
</defs>
</svg>
