<svg width="66" height="86" viewBox="0 0 66 86" fill="none" xmlns="http://www.w3.org/2000/svg">
<mask id="path-1-outside-1_2387_10514" maskUnits="userSpaceOnUse" x="0" y="0" width="66" height="86" fill="black">
<rect fill="white" width="66" height="86"/>
<path fill-rule="evenodd" clip-rule="evenodd" d="M55.0304 55.1998C60.5756 49.5575 64 41.7961 64 33.229C64 15.9817 50.1208 2 33 2C15.8792 2 2 15.9817 2 33.229C2 41.7961 5.42441 49.5575 10.9695 55.1998L33 83L55.0304 55.1998Z"/>
</mask>
<path fill-rule="evenodd" clip-rule="evenodd" d="M55.0304 55.1998C60.5756 49.5575 64 41.7961 64 33.229C64 15.9817 50.1208 2 33 2C15.8792 2 2 15.9817 2 33.229C2 41.7961 5.42441 49.5575 10.9695 55.1998L33 83L55.0304 55.1998Z" fill="#FFC3FB"/>
<path d="M55.0304 55.1998L53.9606 54.1484L53.9045 54.2055L53.8548 54.2682L55.0304 55.1998ZM10.9695 55.1998L12.1452 54.2682L12.0955 54.2054L12.0394 54.1484L10.9695 55.1998ZM33 83L31.8244 83.9316L33 85.4151L34.1756 83.9316L33 83ZM62.5 33.229C62.5 41.3887 59.2401 48.7764 53.9606 54.1484L56.1003 56.2512C61.911 50.3386 65.5 42.2036 65.5 33.229H62.5ZM33 3.5C49.282 3.5 62.5 16.7997 62.5 33.229H65.5C65.5 15.1637 50.9596 0.5 33 0.5V3.5ZM3.5 33.229C3.5 16.7997 16.718 3.5 33 3.5V0.5C15.0404 0.5 0.5 15.1637 0.5 33.229H3.5ZM12.0394 54.1484C6.75986 48.7763 3.5 41.3887 3.5 33.229H0.5C0.5 42.2036 4.08896 50.3386 9.8997 56.2512L12.0394 54.1484ZM9.79392 56.1314L31.8244 83.9316L34.1756 82.0684L12.1452 54.2682L9.79392 56.1314ZM34.1756 83.9316L56.2061 56.1314L53.8548 54.2682L31.8244 82.0684L34.1756 83.9316Z" fill="#0E2AF3" mask="url(#path-1-outside-1_2387_10514)"/>
<path d="M11.9016 40.4693C11.6773 40.7115 11.3658 40.8326 10.967 40.8326C10.6733 40.8326 10.4241 40.7762 10.2192 40.6633C10.0143 40.5505 9.84809 40.4005 9.72073 40.2133C9.59325 40.0263 9.50057 39.8158 9.4424 39.5817C9.38426 39.3479 9.35518 39.107 9.35518 38.8593C9.35518 38.6007 9.38426 38.3503 9.4424 38.1081C9.50057 37.8659 9.59325 37.6498 9.72073 37.46C9.84809 37.2701 10.0143 37.1187 10.2192 37.0059C10.4241 36.8932 10.6733 36.8366 10.967 36.8366C11.1276 36.8366 11.2813 36.8628 11.4281 36.9151C11.5748 36.9674 11.7064 37.0403 11.8227 37.1338C11.939 37.2275 12.0359 37.3361 12.1135 37.46C12.191 37.5838 12.2409 37.72 12.263 37.8687H13.5259C13.4871 37.5274 13.393 37.2246 13.2434 36.9604C13.0939 36.6962 12.9041 36.4748 12.6743 36.2959C12.4444 36.117 12.1841 35.9809 11.8933 35.8872C11.6025 35.7936 11.2937 35.7468 10.967 35.7468C10.5127 35.7468 10.1042 35.8267 9.7415 35.9862C9.37867 36.1459 9.0727 36.366 8.82346 36.6467C8.57422 36.9274 8.38312 37.2564 8.25019 37.6333C8.11726 38.0104 8.05078 38.4191 8.05078 38.8593C8.05078 39.2886 8.11726 39.689 8.25019 40.0606C8.38312 40.4321 8.57422 40.7555 8.82346 41.0307C9.0727 41.306 9.37867 41.5219 9.7415 41.6788C10.1042 41.8356 10.5127 41.9141 10.967 41.9141C11.3325 41.9141 11.6676 41.859 11.9723 41.7489C12.2768 41.6389 12.5427 41.4794 12.7699 41.2701C12.9969 41.061 13.1797 40.8078 13.3182 40.5105C13.4566 40.2133 13.5425 39.8803 13.5757 39.5116H12.3129C12.263 39.9079 12.126 40.2271 11.9016 40.4693Z" fill="#0E2AF3"/>
<path d="M18.1068 39.5817C18.0486 39.8158 17.9558 40.0263 17.8284 40.2133C17.701 40.4005 17.5348 40.5505 17.3299 40.6633C17.125 40.7762 16.8757 40.8326 16.5822 40.8326C16.2886 40.8326 16.0393 40.7762 15.8345 40.6633C15.6295 40.5505 15.4633 40.4005 15.336 40.2133C15.2085 40.0263 15.1158 39.8158 15.0576 39.5817C14.9995 39.3479 14.9704 39.107 14.9704 38.8593C14.9704 38.6007 14.9995 38.3503 15.0576 38.1081C15.1158 37.8659 15.2085 37.6498 15.336 37.46C15.4633 37.2701 15.6295 37.1187 15.8345 37.0059C16.0393 36.8932 16.2886 36.8366 16.5822 36.8366C16.8757 36.8366 17.125 36.8932 17.3299 37.0059C17.5348 37.1187 17.701 37.2701 17.8284 37.46C17.9558 37.6498 18.0486 37.8659 18.1068 38.1081C18.1649 38.3503 18.194 38.6007 18.194 38.8593C18.194 39.107 18.1649 39.3479 18.1068 39.5817ZM18.7257 36.6467C18.4765 36.366 18.1718 36.1459 17.8118 35.9862C17.4517 35.8267 17.0419 35.7468 16.5822 35.7468C16.128 35.7468 15.7195 35.8267 15.3568 35.9862C14.9939 36.1459 14.6879 36.366 14.4387 36.6467C14.1895 36.9274 13.9984 37.2564 13.8654 37.6333C13.7325 38.0104 13.666 38.4191 13.666 38.8593C13.666 39.2886 13.7325 39.6891 13.8654 40.0606C13.9984 40.4321 14.1895 40.7555 14.4387 41.0307C14.6879 41.306 14.9939 41.5219 15.3568 41.6788C15.7195 41.8356 16.128 41.9141 16.5822 41.9141C17.0419 41.9141 17.4517 41.8356 17.8118 41.6788C18.1718 41.5219 18.4765 41.306 18.7257 41.0307C18.975 40.7555 19.1661 40.4321 19.299 40.0606C19.4319 39.6891 19.4984 39.2886 19.4984 38.8593C19.4984 38.4191 19.4319 38.0104 19.299 37.6333C19.1661 37.2564 18.975 36.9274 18.7257 36.6467Z" fill="#0E2AF3"/>
<path d="M26.9675 39.5036L27.7402 37.3405H27.7568L28.5045 39.5036H26.9675ZM23.1681 38.356C23.0186 38.4881 22.7942 38.5541 22.4951 38.5541H21.0661V36.8947H22.4951C22.7942 36.8947 23.0186 36.9594 23.1681 37.0887C23.3176 37.218 23.3924 37.4259 23.3924 37.712C23.3924 38.0092 23.3176 38.2239 23.1681 38.356ZM27.0921 35.8875L24.8571 41.7607C24.8035 41.6822 24.7621 41.5895 24.7342 41.4809C24.7037 41.3626 24.6815 41.2373 24.6677 41.1052C24.6538 40.9731 24.6441 40.8439 24.6387 40.7172C24.6331 40.5906 24.6275 40.4807 24.622 40.387C24.6109 40.2384 24.5901 40.0898 24.5597 39.9411C24.5292 39.7925 24.4808 39.6564 24.4143 39.5325C24.3479 39.4086 24.2619 39.3013 24.1568 39.2106C24.0515 39.1196 23.9186 39.0524 23.758 39.0082V38.9917C24.0903 38.8596 24.3298 38.667 24.4766 38.4137C24.6233 38.1607 24.6968 37.8606 24.6968 37.5138C24.6968 37.2882 24.6566 37.0777 24.5764 36.8823C24.496 36.687 24.3797 36.5149 24.2274 36.3663C24.075 36.2176 23.8922 36.1008 23.6791 36.0154C23.4658 35.9302 23.2263 35.8875 22.9604 35.8875H19.7617V41.7822H21.0661V39.4788H22.3705C22.6973 39.4788 22.9326 39.5504 23.0767 39.6935C23.2207 39.8366 23.3148 40.0622 23.3592 40.3705C23.3924 40.6071 23.4174 40.8548 23.434 41.1135C23.4506 41.3723 23.4948 41.5952 23.5669 41.7822H24.8489H24.8713H26.1616L26.6269 40.4695H28.8452L29.2938 41.7822H30.6481L28.4298 35.8875H27.0921Z" fill="#0E2AF3"/>
<path d="M42.1401 39.7513C42.0571 39.9771 41.9462 40.16 41.8078 40.3003C41.6693 40.4406 41.5114 40.5411 41.3343 40.6016C41.1569 40.6623 40.9742 40.6924 40.7859 40.6924H39.6228V36.9772H40.5533C40.8744 36.9772 41.1445 37.0227 41.3633 37.1135C41.5821 37.2043 41.758 37.3351 41.8909 37.5056C42.0238 37.6763 42.1194 37.8813 42.1775 38.1207C42.2357 38.3602 42.2648 38.6284 42.2648 38.9257C42.2648 39.2504 42.2232 39.5256 42.1401 39.7513ZM42.8007 36.6139C42.5597 36.3719 42.2744 36.1902 41.9449 36.0691C41.6153 35.9481 41.2595 35.8875 40.8773 35.8875H38.3184V41.7822H40.8773C41.3314 41.7822 41.726 41.7067 42.0612 41.5552C42.3963 41.4039 42.676 41.196 42.9004 40.9318C43.1247 40.6676 43.2921 40.3539 43.403 39.9907C43.5137 39.6274 43.5692 39.2311 43.5692 38.8018C43.5692 38.312 43.5013 37.8853 43.3656 37.5221C43.2298 37.1589 43.0416 36.8563 42.8007 36.6139Z" fill="#0E2AF3"/>
<path d="M45.156 39.2477H48.0306V38.2404H45.156V36.9772H48.2882V35.8875H43.8516V41.7822H48.3546V40.6924H45.156V39.2477Z" fill="#0E2AF3"/>
<path d="M52.4018 39.8421H52.3852L49.9094 35.8875H48.6133V41.7822H49.8346V37.8358H49.8512L52.3188 41.7822H53.6232V35.8875H52.4018V39.8421Z" fill="#0E2AF3"/>
<path d="M53.8477 35.8875V36.9772H55.6256V41.7822H56.93V36.9772H58.708V35.8875H53.8477Z" fill="#0E2AF3"/>
<path d="M35.3298 40.1242C35.391 39.5595 35.5289 38.8261 35.6618 38.1923C35.7982 37.7311 35.9614 37.3269 36.1434 37.0788C36.8452 36.2485 37.6055 35.6561 38.6973 35.3161C39.4943 35.0679 40.2751 34.765 41.0533 34.4616C41.5059 34.2851 41.9392 34.0596 42.4114 33.8422C42.222 33.5448 42.071 33.3076 41.9493 33.1165C40.8445 33.5519 39.7952 33.9654 38.746 34.3789C38.7185 34.3432 38.691 34.3074 38.6635 34.2717C39.0695 33.2635 39.4756 32.2553 39.8905 31.2249C39.6144 31.1027 39.3633 30.9915 39.0243 30.8415C38.5694 32.0675 38.1288 33.2558 37.6869 34.4436C37.6438 34.5595 37.625 34.7137 37.5396 34.7798C37.0438 35.164 36.5314 35.5272 35.9794 35.9305C35.9536 35.6361 35.9274 35.3756 35.9013 35.1196C35.863 34.7438 35.9285 34.416 36.1769 34.0896C37.0821 32.9002 37.766 31.5821 38.3917 30.1868C38.1049 30.0645 37.8438 29.9532 37.5649 29.8343C36.9925 31.0246 36.435 32.182 35.6444 33.2698C35.5532 32.9745 35.5013 32.7391 35.4078 32.5213C35.2939 32.2559 35.3656 32.0767 35.537 31.8474C36.2072 30.9512 36.8421 30.0289 37.5094 29.0891C37.2482 28.8907 37.0236 28.7201 36.7603 28.5201C36.1746 29.392 35.6131 30.2279 35.0516 31.0638C34.9947 31.0433 34.9378 31.0227 34.8809 31.0021C34.9695 30.2637 35.0581 29.5253 35.1512 28.7491C34.9177 28.6668 34.6511 28.5729 34.3629 28.4712C33.9815 29.777 33.8431 31.0217 34.3394 32.2888C34.5581 32.8472 34.6838 33.4421 34.8362 34.0245C34.8614 34.1205 34.8319 34.2624 34.7826 34.3389C34.4531 34.8497 33.9172 35.581 33.0718 36.0805C33.0203 35.469 32.9646 34.8943 32.9275 34.3184C32.9155 34.1322 32.9347 33.9396 32.9702 33.7558C33.0727 33.2249 33.1773 32.6936 33.3054 32.1684C33.6424 30.7869 33.5747 29.4036 33.3841 27.9816C33.0688 28.0305 32.7894 28.0738 32.495 28.1194C32.635 29.4942 32.7689 30.83 32.3091 32.2506C32.0034 31.3198 31.7311 30.4907 31.4567 29.6555H30.554C30.6348 29.9698 30.6937 30.252 30.7801 30.5256C31.155 31.7133 31.5515 32.8944 31.9133 34.086C32.1629 34.9081 32.2047 35.7457 32.0076 36.5317C31.542 35.9641 31.0651 35.3997 30.6121 34.8169C30.514 34.6907 30.4548 34.4975 30.4586 34.3371C30.4726 33.7588 30.5176 33.181 30.5577 32.6035C30.5869 32.1837 30.6269 31.7646 30.6633 31.3302C30.3368 31.2921 30.0672 31.2607 29.7697 31.2259C29.6991 31.9462 29.6324 32.6268 29.5657 33.3073C29.535 33.3142 29.5043 33.3211 29.4736 33.328C29.2693 32.5771 29.0651 31.8262 28.8581 31.0654C28.5654 31.1226 28.295 31.1755 28.0273 31.2278C28.2351 33.0652 28.7512 34.1858 29.9748 35.4819C30.1482 35.6657 30.3152 35.8555 30.491 36.037C31.12 36.6864 31.5802 37.6086 31.4991 38.0991C31.4977 38.1074 31.4892 38.1977 31.4764 38.3387C31.3917 38.7814 31.3092 39.2516 31.2187 39.8063C31.2187 39.8063 30.9819 41.0519 30.9043 41.8507C30.8159 42.7614 31.2898 43.2646 32.0548 43.2646H34.6095C34.614 42.8392 34.6185 42.4137 34.6229 41.9883C34.1288 41.9921 33.182 41.9997 32.6878 41.9997C32.3561 41.9997 32.1784 41.8901 32.2258 41.537C32.2796 41.1353 32.6404 39.0646 32.7391 38.6407C32.7428 38.6252 32.7467 38.6089 32.7508 38.5924C32.7624 38.5466 32.7745 38.5007 32.7867 38.4549C32.8457 38.2392 32.9276 37.9771 33.0042 37.7413C33.1106 37.4381 33.2236 37.1808 33.3315 37.0317C33.4828 36.8227 33.6949 36.6785 34.1688 36.2311C34.3299 36.0789 34.5517 35.879 34.769 35.7131C34.805 36.0999 34.7361 36.4683 34.6488 36.8532C34.5013 37.4182 34.3765 37.9881 34.2636 38.68C34.2636 38.68 34.086 39.6391 34.0084 40.4379C33.92 41.3486 34.3939 41.8519 35.1589 41.8519H37.7136C37.7181 41.4264 37.7226 41.0009 37.727 40.5755C37.2329 40.5793 36.2861 40.5869 35.7919 40.5869C35.4602 40.5869 35.2915 40.4784 35.3298 40.1242Z" fill="#0E2AF3"/>
</svg>
