<svg width="200" height="61" viewBox="0 0 200 61" fill="none" xmlns="http://www.w3.org/2000/svg">
<path d="M15.2032 49.8407C14.3176 50.8077 13.0876 51.2908 11.5132 51.2908C10.3539 51.2908 9.36976 51.0658 8.56106 50.6153C7.75182 50.1651 7.09578 49.5663 6.59295 48.819C6.08969 48.0727 5.72378 47.2324 5.49413 46.2982C5.26459 45.365 5.14976 44.4035 5.14976 43.415C5.14976 42.3826 5.26459 41.383 5.49413 40.4163C5.72378 39.4496 6.08969 38.5873 6.59295 37.8296C7.09578 37.0715 7.75182 36.4676 8.56106 36.0171C9.36976 35.5672 10.3539 35.3416 11.5132 35.3416C12.1471 35.3416 12.7539 35.446 13.3335 35.6546C13.9127 35.8637 14.4325 36.1546 14.8917 36.5277C15.3509 36.9016 15.7332 37.3352 16.0397 37.8296C16.3457 38.3237 16.5424 38.8675 16.63 39.4607H21.6158C21.4625 38.0988 21.091 36.8901 20.5006 35.8357C19.9102 34.7812 19.1609 33.8973 18.2538 33.1832C17.3461 32.4694 16.3185 31.926 15.1704 31.5521C14.0224 31.1787 12.8032 30.9918 11.5132 30.9918C9.71982 30.9918 8.10701 31.3106 6.67497 31.9474C5.2425 32.5848 4.03453 33.4632 3.05053 34.5836C2.06653 35.7041 1.31207 37.0169 0.787264 38.5213C0.262457 40.0263 0 41.6577 0 43.415C0 45.1283 0.262457 46.7266 0.787264 48.2095C1.31207 49.6925 2.06653 50.9833 3.05053 52.0816C4.03453 53.1803 5.2425 54.0423 6.67497 54.6684C8.10701 55.2944 9.71982 55.6074 11.5132 55.6074C12.9564 55.6074 14.2792 55.3877 15.4821 54.9482C16.6844 54.5091 17.7341 53.8723 18.6309 53.0373C19.5273 52.2025 20.249 51.1919 20.7958 50.0055C21.3421 48.819 21.6814 47.4901 21.8126 46.0183H16.8269C16.63 47.6001 16.0889 48.8743 15.2032 49.8407Z" fill="#0E2AF3"/>
<path d="M39.7079 46.2982C39.4782 47.2324 39.1119 48.0727 38.6091 48.819C38.1058 49.5663 37.4498 50.1651 36.641 50.6153C35.8317 51.0658 34.8477 51.2908 33.689 51.2908C32.5297 51.2908 31.5457 51.0658 30.7368 50.6153C29.9276 50.1651 29.2716 49.5663 28.7688 48.819C28.2655 48.0727 27.8996 47.2324 27.6699 46.2982C27.4404 45.365 27.3255 44.4035 27.3255 43.415C27.3255 42.3826 27.4404 41.3831 27.6699 40.4163C27.8996 39.4496 28.2655 38.5873 28.7688 37.8296C29.2716 37.0715 29.9276 36.4676 30.7368 36.0171C31.5457 35.5672 32.5297 35.3416 33.689 35.3416C34.8477 35.3416 35.8317 35.5672 36.641 36.0171C37.4498 36.4676 38.1058 37.0715 38.6091 37.8296C39.1119 38.5873 39.4782 39.4496 39.7079 40.4163C39.9375 41.3831 40.0524 42.3826 40.0524 43.415C40.0524 44.4035 39.9375 45.365 39.7079 46.2982ZM42.1516 34.5836C41.1676 33.4632 39.9647 32.5848 38.5434 31.9474C37.1217 31.3106 35.5037 30.9918 33.689 30.9918C31.8956 30.9918 30.2828 31.3106 28.8509 31.9474C27.4183 32.5848 26.2103 33.4632 25.2263 34.5836C24.2423 35.7041 23.4879 37.0169 22.963 38.5213C22.4382 40.0263 22.1758 41.6578 22.1758 43.415C22.1758 45.1284 22.4382 46.7267 22.963 48.2095C23.4879 49.6925 24.2423 50.9833 25.2263 52.0816C26.2103 53.1803 27.4183 54.0423 28.8509 54.6684C30.2828 55.2944 31.8956 55.6074 33.689 55.6074C35.5037 55.6074 37.1217 55.2944 38.5434 54.6684C39.9647 54.0423 41.1676 53.1803 42.1516 52.0816C43.1356 50.9833 43.8899 49.6925 44.4149 48.2095C44.9397 46.7267 45.202 45.1284 45.202 43.415C45.202 41.6578 44.9397 40.0263 44.4149 38.5213C43.8899 37.0169 43.1356 35.7041 42.1516 34.5836Z" fill="#0E2AF3"/>
<path d="M74.6966 45.9851L77.747 37.3517H77.8126L80.7647 45.9851H74.6966ZM59.6964 41.4048C59.1061 41.932 58.2204 42.1956 57.0396 42.1956H51.3978V35.5723H57.0396C58.2204 35.5723 59.1061 35.8304 59.6964 36.3467C60.2868 36.8628 60.5821 37.6923 60.5821 38.8345C60.5821 40.0207 60.2868 40.8775 59.6964 41.4048ZM75.1886 31.5521L66.3647 54.9941C66.1529 54.6809 65.9895 54.311 65.8794 53.8774C65.759 53.4051 65.6714 52.9052 65.617 52.378C65.5621 51.8507 65.5238 51.3348 65.5022 50.8291C65.4802 50.324 65.4581 49.8851 65.4366 49.5113C65.3925 48.918 65.3105 48.3249 65.1906 47.7316C65.0701 47.1384 64.879 46.595 64.6166 46.1005C64.3542 45.6061 64.0149 45.1776 63.5998 44.8156C63.1842 44.4527 62.6593 44.1843 62.0253 44.0081V43.9421C63.3374 43.4149 64.2829 42.6461 64.8626 41.6353C65.4417 40.6253 65.7319 39.4275 65.7319 38.0434C65.7319 37.1429 65.573 36.3027 65.2563 35.5226C64.9389 34.7431 64.4797 34.0562 63.8786 33.4631C63.2769 32.8698 62.5552 32.4036 61.7137 32.0627C60.8717 31.7224 59.9261 31.5521 58.8764 31.5521H46.248V55.0801H51.3978V45.8862H56.5476C57.8375 45.8862 58.7668 46.172 59.3356 46.7432C59.9041 47.3146 60.2756 48.215 60.4509 49.4453C60.5821 50.3899 60.6805 51.3784 60.746 52.4108C60.8116 53.4438 60.9864 54.3334 61.2709 55.0801H66.3323H66.4206H71.5148L73.3517 49.8406H82.1096L83.8807 55.0801H89.2273L80.4695 31.5521H75.1886Z" fill="#0E2AF3"/>
<path d="M134.596 46.9739C134.268 47.875 133.83 48.605 133.284 49.1651C132.737 49.7252 132.114 50.1262 131.415 50.3678C130.714 50.6099 129.993 50.7302 129.25 50.7302H124.658V35.9016H128.331C129.599 35.9016 130.665 36.083 131.529 36.4454C132.393 36.8079 133.087 37.3298 133.612 38.0105C134.137 38.6918 134.514 39.51 134.744 40.4657C134.973 41.4214 135.088 42.492 135.088 43.6785C135.088 44.9748 134.924 46.0731 134.596 46.9739ZM137.204 34.4515C136.253 33.4855 135.126 32.7603 133.825 32.2769C132.524 31.7939 131.119 31.552 129.61 31.552H119.508V55.0801H129.61C131.403 55.0801 132.961 54.7785 134.285 54.1738C135.607 53.5699 136.712 52.7403 137.598 51.6858C138.483 50.6314 139.144 49.3792 139.582 47.9296C140.019 46.4795 140.238 44.8978 140.238 43.184C140.238 41.2292 139.97 39.5262 139.434 38.0765C138.898 36.6268 138.155 35.4189 137.204 34.4515Z" fill="#0E2AF3"/>
<path d="M146.501 44.9637H157.85V40.9435H146.501V35.9015H158.867V31.552H141.352V55.0801H159.13V50.7302H146.501V44.9637Z" fill="#0E2AF3"/>
<path d="M175.1 47.3363H175.034L165.26 31.552H160.143V55.0801H164.964V39.3286H165.03L174.772 55.0801H179.922V31.552H175.1V47.3363Z" fill="#0E2AF3"/>
<path d="M180.809 31.552V35.9016H187.828V55.0801H192.978V35.9016H199.997V31.552H180.809Z" fill="#0E2AF3"/>
<path d="M107.711 48.4652C107.953 46.2112 108.497 43.2841 109.022 40.7543C109.56 38.9135 110.205 37.3004 110.923 36.3101C113.694 32.9961 116.695 30.6317 121.006 29.2745C124.153 28.284 127.235 27.0749 130.307 25.8639C132.094 25.1596 133.805 24.2594 135.669 23.3915C134.922 22.2045 134.325 21.2578 133.845 20.495C129.483 22.2329 125.341 23.8834 121.198 25.5339C121.09 25.3912 120.981 25.2486 120.872 25.106C122.476 21.0818 124.079 17.0576 125.717 12.9449C124.627 12.4572 123.635 12.0135 122.297 11.4146C120.501 16.3083 118.761 21.0512 117.017 25.7921C116.847 26.2547 116.772 26.8702 116.435 27.1341C114.478 28.6675 112.455 30.117 110.275 31.7268C110.174 30.5519 110.07 29.5122 109.967 28.4901C109.816 26.9901 110.075 25.6819 111.055 24.3792C114.629 19.6319 117.329 14.371 119.799 8.80152C118.667 8.31362 117.636 7.86944 116.535 7.39472C114.275 12.1458 112.074 16.7652 108.953 21.1071C108.593 19.9284 108.388 18.9889 108.019 18.1195C107.569 17.0602 107.852 16.3449 108.529 15.4298C111.175 11.8527 113.681 8.17134 116.316 4.42015C115.285 3.62825 114.398 2.94732 113.359 2.14927C111.046 5.62931 108.829 8.96577 106.613 12.3022C106.388 12.2202 106.163 12.138 105.939 12.0559C106.289 9.10848 106.638 6.16127 107.006 3.06345C106.084 2.73495 105.032 2.35988 103.893 1.95426C102.388 7.16598 101.842 12.1341 103.801 17.1915C104.664 19.4201 105.16 21.7949 105.762 24.1194C105.862 24.5025 105.745 25.0687 105.551 25.374C104.25 27.4131 102.134 30.3319 98.7964 32.3253C98.593 29.8848 98.3732 27.591 98.2268 25.2922C98.1794 24.5493 98.2552 23.7805 98.3954 23.0469C98.8001 20.9276 99.213 18.8074 99.7187 16.7109C101.049 11.197 100.782 5.67545 100.029 0C98.7845 0.195007 97.6813 0.367939 96.5194 0.549984C97.0718 6.03735 97.6005 11.3689 95.7854 17.039C94.5784 13.3238 93.5032 10.0144 92.4201 6.68104H88.8561C89.1751 7.93557 89.4076 9.06168 89.7486 10.1539C91.2289 14.8943 92.7943 19.6086 94.2225 24.3646C95.2081 27.646 95.3732 30.9893 94.595 34.1264C92.7568 31.861 90.8738 29.6082 89.0853 27.2821C88.698 26.7784 88.4644 26.0073 88.4796 25.3671C88.5346 23.0588 88.7122 20.7526 88.8707 18.4475C88.9858 16.7718 89.1437 15.0991 89.2875 13.3655C87.9988 13.2134 86.9343 13.0879 85.7598 12.9492C85.481 15.8241 85.2177 18.5405 84.9544 21.2568C84.8331 21.2842 84.7118 21.3118 84.5905 21.3393C83.7842 18.3422 82.9778 15.3452 82.1608 12.3085C81.005 12.5369 79.9376 12.7478 78.8809 12.9566C79.7012 20.2905 81.7387 24.763 86.5692 29.9363C87.254 30.6698 87.9133 31.4274 88.6072 32.1517C91.0905 34.7438 92.9077 38.4248 92.5873 40.3826C92.5819 40.4156 92.5484 40.7762 92.4977 41.3387C92.1634 43.1058 91.8377 44.9826 91.4803 47.1964C91.4803 47.1964 90.5453 52.1679 90.2391 55.3563C89.8899 58.9913 91.7609 61 94.7813 61H104.867C104.885 59.3017 104.903 57.6037 104.92 55.9055C102.969 55.9208 99.2313 55.9512 97.2804 55.9512C95.9706 55.9512 95.2691 55.5138 95.4562 54.1042C95.6689 52.5012 97.0933 44.236 97.483 42.5443C97.4974 42.4821 97.5129 42.4173 97.5291 42.3513C97.575 42.1686 97.6226 41.9855 97.6709 41.8024C97.9036 40.9416 98.2272 39.8956 98.5295 38.9543C98.9494 37.7441 99.3957 36.7174 99.8219 36.1221C100.419 35.2879 101.256 34.7125 103.127 32.9267C103.764 32.3193 104.639 31.5212 105.497 30.8591C105.639 32.4029 105.367 33.8734 105.022 35.4096C104.44 37.6648 103.947 39.9394 103.501 42.701C103.501 42.701 102.8 46.529 102.494 49.7173C102.145 53.3523 104.016 55.361 107.036 55.361H117.122C117.14 53.6627 117.158 51.9647 117.175 50.2665C115.224 50.2818 111.486 50.3122 109.535 50.3122C108.226 50.3122 107.56 49.8793 107.711 48.4652Z" fill="#0E2AF3"/>
</svg>
