<svg aria-hidden="true" xmlns="http://www.w3.org/2000/svg" xmlns:xlink="http://www.w3.org/1999/xlink"><symbol viewBox="0 0 14 10" fill="none" id="icon-arrow" xmlns="http://www.w3.org/2000/svg">
<path fill-rule="evenodd" clip-rule="evenodd" d="M6.28837 8.85009L0.631374 2.25025L2.04537 0.600586L6.99538 6.37559L11.9454 0.600586L13.3594 2.25025L7.70237 8.85009C7.51485 9.0688 7.26054 9.19167 6.99538 9.19167C6.73021 9.19167 6.4759 9.0688 6.28837 8.85009Z" fill="currentColor"/>
</symbol><symbol viewBox="0 0 40 40" fill="none" id="icon-card" xmlns="http://www.w3.org/2000/svg">
<path d="M26.6667 22.0833C26.3351 22.0833 26.0172 22.215 25.7828 22.4495C25.5484 22.6839 25.4167 23.0018 25.4167 23.3333C25.4167 23.6649 25.5484 23.9828 25.7828 24.2172C26.0172 24.4516 26.3351 24.5833 26.6667 24.5833H30.8333C31.1649 24.5833 31.4828 24.4516 31.7172 24.2172C31.9516 23.9828 32.0833 23.6649 32.0833 23.3333C32.0833 23.0018 31.9516 22.6839 31.7172 22.4495C31.4828 22.215 31.1649 22.0833 30.8333 22.0833H26.6667ZM3.75 11.6667C3.75 10.2301 4.32068 8.85233 5.3365 7.8365C6.35233 6.82068 7.73008 6.25 9.16667 6.25H31.6667C32.378 6.25 33.0824 6.39011 33.7395 6.66232C34.3967 6.93453 34.9938 7.33352 35.4968 7.8365C35.9998 8.33949 36.3988 8.93662 36.671 9.5938C36.9432 10.251 37.0833 10.9553 37.0833 11.6667V24.1667C37.0833 24.878 36.9432 25.5824 36.671 26.2395C36.3988 26.8967 35.9998 27.4938 35.4968 27.9968C34.9938 28.4998 34.3967 28.8988 33.7395 29.171C33.0824 29.4432 32.378 29.5833 31.6667 29.5833H9.16667C7.73008 29.5833 6.35233 29.0127 5.3365 27.9968C4.32068 26.981 3.75 25.6033 3.75 24.1667V11.6667ZM34.5833 13.75V11.6667C34.5833 10.8931 34.276 10.1513 33.7291 9.60427C33.1821 9.05729 32.4402 8.75 31.6667 8.75H9.16667C8.39312 8.75 7.65125 9.05729 7.10427 9.60427C6.55729 10.1513 6.25 10.8931 6.25 11.6667V13.75H34.5833ZM6.25 16.25V24.1667C6.25 25.7767 7.55667 27.0833 9.16667 27.0833H31.6667C32.4402 27.0833 33.1821 26.776 33.7291 26.2291C34.276 25.6821 34.5833 24.9402 34.5833 24.1667V16.25H6.25Z" fill="currentColor"/>
</symbol><symbol viewBox="0 0 40 40" fill="none" id="icon-doc" xmlns="http://www.w3.org/2000/svg">
<path d="M25.2137 21.64C25.2137 21.3552 25.1006 21.0821 24.8993 20.8808C24.6979 20.6794 24.4248 20.5663 24.14 20.5663H15.5503C15.2655 20.5663 14.9924 20.6794 14.791 20.8808C14.5897 21.0821 14.4766 21.3552 14.4766 21.64C14.4766 21.9248 14.5897 22.1979 14.791 22.3992C14.9924 22.6006 15.2655 22.7137 15.5503 22.7137H24.14C24.4248 22.7137 24.6979 22.6006 24.8993 22.3992C25.1006 22.1979 25.2137 21.9248 25.2137 21.64ZM25.2137 27.3665C25.2137 27.0817 25.1006 26.8086 24.8993 26.6073C24.6979 26.4059 24.4248 26.2928 24.14 26.2928H15.5503C15.2655 26.2928 14.9924 26.4059 14.791 26.6073C14.5897 26.8086 14.4766 27.0817 14.4766 27.3665C14.4766 27.6513 14.5897 27.9244 14.791 28.1257C14.9924 28.3271 15.2655 28.4402 15.5503 28.4402H24.14C24.4248 28.4402 24.6979 28.3271 24.8993 28.1257C25.1006 27.9244 25.2137 27.6513 25.2137 27.3665Z" fill="currentColor"/>
<path fill-rule="evenodd" clip-rule="evenodd" d="M12.687 6.25C11.6428 6.25 10.6414 6.66479 9.90311 7.40311C9.16479 8.14144 8.75 9.14282 8.75 10.187V30.2297C8.75 31.2739 9.16479 32.2752 9.90311 33.0136C10.6414 33.7519 11.6428 34.1667 12.687 34.1667H27.0032C28.0474 34.1667 29.0487 33.7519 29.7871 33.0136C30.5254 32.2752 30.9402 31.2739 30.9402 30.2297V14.436C30.9402 13.8906 30.7626 13.3609 30.4334 12.9257L26.1414 7.24498C25.9078 6.93591 25.6058 6.68521 25.259 6.51257C24.9123 6.33993 24.5302 6.25005 24.1428 6.25H12.687ZM10.8974 10.187C10.8974 9.19915 11.6991 8.39744 12.687 8.39744H23.0662V14.6923C23.0662 15.285 23.5473 15.766 24.14 15.766H28.7927V30.2297C28.7927 31.2175 27.991 32.0192 27.0032 32.0192H12.687C11.6991 32.0192 10.8974 31.2175 10.8974 30.2297V10.187Z" fill="currentColor"/>
</symbol><symbol viewBox="0 0 32 32" fill="none" id="icon-tel" xmlns="http://www.w3.org/2000/svg">
<path d="M15.9997 32.0007C24.7374 32.0007 32 24.7381 32 16.0003C32 7.2472 24.7213 0 15.9836 0C7.23114 0 0 7.2472 0 16.0003C0 24.7381 7.24653 32.0007 15.9997 32.0007ZM11.9062 19.9064C8.01556 16.0311 5.53714 11.0903 8.47069 8.15678C8.64337 7.9841 8.83144 7.81209 9.00412 7.63941C9.89831 6.79208 10.761 6.8396 11.5294 7.92186L13.5688 10.824C14.2588 11.8279 14.0861 12.3921 13.3492 13.1765L12.706 13.8827C12.4711 14.1022 12.5655 14.4 12.6746 14.5888C12.9731 15.153 13.8197 16.157 14.7293 17.0672C15.671 18.0082 16.6275 18.8081 17.2238 19.1374C17.4434 19.2632 17.7573 19.2946 17.9614 19.1066L18.6354 18.4634C19.3883 17.7258 20.0008 17.5377 20.9733 18.2278C21.9557 18.9264 22.9441 19.6167 23.9383 20.2986C24.9261 21.0201 25.1611 21.9143 24.1571 22.8239C23.9851 22.9965 23.8278 23.1853 23.6551 23.3573C20.7223 26.2755 15.7962 23.7964 11.9062 19.9064Z" fill="currentColor"/>
</symbol></svg>